<?xml version="1.0" encoding="iso-8859-1"?>
<!-- Generator: Adobe Illustrator 19.0.0, SVG Export Plug-In . SVG Version: 6.00 Build 0)  -->
<svg version="1.1" id="Capa_1" xmlns="http://www.w3.org/2000/svg" xmlns:xlink="http://www.w3.org/1999/xlink" x="0px" y="0px"
	 viewBox="0 0 511.998 511.998" style="enable-background:new 0 0 511.998 511.998;" xml:space="preserve">
<g>
	<g>
		<path d="M54.517,310.117l-25.6-10.786c-4.352-1.818-9.353,0.213-11.179,4.557c-1.826,4.343,0.213,9.352,4.557,11.179l25.6,10.778
			c1.075,0.461,2.202,0.674,3.302,0.674c3.328,0,6.494-1.963,7.876-5.222C60.9,316.944,58.861,311.944,54.517,310.117z"/>
	</g>
</g>
<g>
	<g>
		<path d="M211.335,376.14L88.642,324.479c-4.352-1.826-9.353,0.205-11.179,4.557c-1.826,4.343,0.213,9.353,4.557,11.179
			l122.701,51.661c1.075,0.461,2.202,0.674,3.302,0.674c3.328,0,6.494-1.963,7.868-5.231
			C217.717,382.975,215.678,377.966,211.335,376.14z"/>
	</g>
</g>
<g>
	<g>
		<path d="M35.898,381.046l-25.6-5.393c-4.608-0.981-9.139,1.971-10.112,6.588c-0.973,4.617,1.971,9.139,6.588,10.112l25.6,5.393
			c0.597,0.12,1.186,0.179,1.766,0.179c3.951,0,7.501-2.756,8.346-6.767C43.458,386.542,40.514,382.019,35.898,381.046z"/>
	</g>
</g>
<g>
	<g>
		<path d="M213.024,418.329L70.031,388.223c-4.634-0.981-9.139,1.98-10.112,6.588c-0.973,4.617,1.98,9.139,6.588,10.112
			L209.5,435.028c0.597,0.119,1.186,0.179,1.766,0.179c3.951,0,7.501-2.756,8.346-6.767
			C220.585,423.824,217.632,419.301,213.024,418.329z"/>
	</g>
</g>
<g>
	<g>
		<path d="M73.001,231.833l-25.6-17.067c-3.925-2.62-9.224-1.545-11.836,2.364c-2.62,3.925-1.553,9.225,2.364,11.836l25.6,17.067
			c1.459,0.973,3.098,1.434,4.727,1.434c2.756,0,5.47-1.331,7.108-3.797C77.984,239.743,76.918,234.444,73.001,231.833z"/>
	</g>
</g>
<g>
	<g>
		<path d="M226.584,334.224l-119.458-79.642c-3.917-2.611-9.216-1.562-11.836,2.364c-2.62,3.925-1.553,9.225,2.364,11.836
			l119.458,79.642c1.459,0.973,3.098,1.434,4.727,1.434c2.756,0,5.47-1.331,7.108-3.797
			C231.567,342.134,230.5,336.835,226.584,334.224z"/>
	</g>
</g>
<g>
	<g>
		<path d="M454.099,281.599H426.75c-4.71,0-8.533,3.823-8.533,8.533c0,4.71,3.823,8.533,8.533,8.533h27.349
			c4.71,0,8.533-3.823,8.533-8.533C462.633,285.422,458.81,281.599,454.099,281.599z"/>
	</g>
</g>
<g>
	<g>
		<path d="M329.88,271.316l-25.873-21.99c-3.593-3.063-8.977-2.62-12.032,0.973c-3.055,3.584-2.62,8.977,0.973,12.023l25.873,21.99
			c1.604,1.365,3.567,2.031,5.521,2.031c2.415,0,4.813-1.015,6.511-3.004C333.907,279.756,333.472,274.363,329.88,271.316z"/>
	</g>
</g>
<g>
	<g>
		<path d="M401.065,255.999c-18.825,0-34.133,15.309-34.133,34.133c0,18.825,15.309,34.133,34.133,34.133
			c18.825,0,34.133-15.309,34.133-34.133C435.198,271.308,419.889,255.999,401.065,255.999z M401.065,307.199
			c-9.412,0-17.067-7.654-17.067-17.067c0-9.412,7.654-17.067,17.067-17.067c9.412,0,17.067,7.654,17.067,17.067
			C418.131,299.545,410.477,307.199,401.065,307.199z"/>
	</g>
</g>
<g>
	<g>
		<path d="M349.865,255.999c-18.825,0-34.133,15.309-34.133,34.133c0,18.825,15.309,34.133,34.133,34.133
			c18.825,0,34.133-15.309,34.133-34.133C383.998,271.308,368.689,255.999,349.865,255.999z M349.865,307.199
			c-9.412,0-17.067-7.654-17.067-17.067c0-9.412,7.654-17.067,17.067-17.067c9.412,0,17.067,7.654,17.067,17.067
			C366.931,299.545,359.277,307.199,349.865,307.199z"/>
	</g>
</g>
<g>
	<g>
		<path d="M426.665,401.066h-44.399c-13.892,0-26.539-2.389-37.598-7.091c-2.628-1.118-5.658-0.845-8.047,0.734
			c-2.389,1.579-3.823,4.25-3.823,7.117v33.374c0,18.825,15.309,34.133,34.133,34.133h34.133c18.825,0,34.133-15.309,34.133-34.133
			v-25.6C435.198,404.889,431.375,401.066,426.665,401.066z M418.131,435.199c0,9.412-7.654,17.067-17.067,17.067h-34.133
			c-9.412,0-17.067-7.654-17.067-17.067v-21.342c10.044,2.842,20.89,4.275,32.401,4.275h35.866V435.199z"/>
	</g>
</g>
<g>
	<g>
		<path d="M401.065,358.399h-51.2c-4.71,0-8.533,3.823-8.533,8.533s3.823,8.533,8.533,8.533h51.2c4.71,0,8.533-3.823,8.533-8.533
			S405.775,358.399,401.065,358.399z"/>
	</g>
</g>
<g>
	<g>
		<path d="M351.512,173.61c-1.621-1.869-3.968-2.944-6.443-2.944h-37.871c-14.114,0-25.6,11.486-25.6,25.6s11.486,25.6,25.6,25.6
			h25.446c2.219,0,4.352-0.87,5.956-2.415l8.772-8.533c1.348-1.314,2.227-3.038,2.492-4.907l3.652-25.6
			C353.867,177.962,353.133,175.478,351.512,173.61z M333.37,200.712l-4.198,4.087h-21.973c-4.71,0-8.533-3.831-8.533-8.533
			c0-4.702,3.823-8.533,8.533-8.533h28.032L333.37,200.712z"/>
	</g>
</g>
<g>
	<g>
		<path d="M503.465,42.666H392.608c-23.526,0-42.667,19.14-42.667,42.667c0,4.71,3.823,8.533,8.533,8.533h144.99
			c4.71,0,8.533-3.823,8.533-8.533V51.199C511.998,46.489,508.175,42.666,503.465,42.666z M494.931,76.799H368.476
			c3.516-9.933,13.005-17.067,24.132-17.067h102.323V76.799z"/>
	</g>
</g>
<g>
	<g>
		<path d="M503.465,76.799h-144.99c-4.241,0-7.842,3.123-8.448,7.322L332.96,203.587c-0.35,2.449,0.384,4.932,2.005,6.801
			s3.968,2.944,6.443,2.944h162.057c4.71,0,8.533-3.823,8.533-8.533V85.332C511.998,80.622,508.175,76.799,503.465,76.799z
			 M494.931,196.266H351.247l14.626-102.4h129.058V196.266z"/>
	</g>
</g>
<g>
	<g>
		<path d="M503.465,196.266H341.408c-2.219,0-4.361,0.87-5.956,2.415l-34.543,33.621c-0.546,0.546-1.024,1.152-1.417,1.818
			c-17.365,29.781-22.332,64.606-13.969,98.048l5.888,23.569c9.771,39.066,43.733,62.396,90.854,62.396h121.199
			c4.71,0,8.533-3.823,8.533-8.533v-204.8C511.998,200.089,508.175,196.266,503.465,196.266z M494.931,401.066H382.266
			c-38.776,0-66.551-18.492-74.3-49.476l-5.888-23.569c-7.177-28.723-3.063-58.624,11.588-84.309l31.206-30.379h150.059V401.066z"/>
	</g>
</g>
<g>
	<g>
		<path d="M503.465,255.999H486.33c-11.136,0-21.871,4.676-29.457,12.826c-7.586,8.149-11.486,19.191-10.684,30.404l3.994,47.386
			c1.493,20.966,19.132,37.385,40.149,37.385h13.133c4.71,0,8.533-3.823,8.533-8.533V264.532
			C511.998,259.822,508.175,255.999,503.465,255.999z M494.931,366.932h-4.599c-12.109,0-22.263-9.455-23.134-21.649l-3.994-47.386
			c-0.461-6.485,1.732-12.689,6.161-17.451s10.462-7.381,16.964-7.381h8.602V366.932z"/>
	</g>
</g>
<g>
	<g>
		<path d="M503.465,452.266H127.998c-4.71,0-8.533,3.823-8.533,8.533s3.823,8.533,8.533,8.533h375.467
			c4.71,0,8.533-3.823,8.533-8.533S508.175,452.266,503.465,452.266z"/>
	</g>
</g>
<g>
</g>
<g>
</g>
<g>
</g>
<g>
</g>
<g>
</g>
<g>
</g>
<g>
</g>
<g>
</g>
<g>
</g>
<g>
</g>
<g>
</g>
<g>
</g>
<g>
</g>
<g>
</g>
<g>
</g>
</svg>
