<svg width="0" height="0" class="hidden">
  <symbol xmlns="http://www.w3.org/2000/svg" viewBox="0 0 512 512" id="certificate">
    <path d="M89.49 492.68c-3.9-2-8.18-3.59-11.61-6.25-5.72-4.44-8.59-10.7-8.81-18v-3.69q0-208.38-.14-416.77c0-16 10.21-25.67 20.88-27.49A38.25 38.25 0 0 1 96.2 20h319c16.65 0 27.16 10.4 27.16 27q0 209.31.05 418.62c0 14.4-7.51 22.7-20.49 27.06Zm339-236.23V48.74c0-11.21-3.71-14.89-14.94-14.89H97.8c-11.24 0-14.93 3.67-14.93 14.89v415c0 11.57 3.58 15.13 15.16 15.13h315.31c11.57 0 15.18-3.58 15.18-15.13Z"></path>
    <path d="M117.43 444.49h276.25V68.35H117.43v253a48.57 48.57 0 0 1-.13 5.53 6.33 6.33 0 0 1-6.41 6.06 6.22 6.22 0 0 1-6.81-5 19.53 19.53 0 0 1-.46-5V68.6c0-10.59 3.83-14.36 14.5-14.36h275.14c10.72 0 14.52 3.73 14.53 14.33V444.2c0 10.59-3.83 14.35-14.52 14.36H118.11c-10.65 0-14.51-3.81-14.51-14.37V359.26c.33-4.6 3.17-7.63 7.07-7.55s6.68 3.05 6.7 7.79c.07 16.62 0 33.24 0 49.85Z"></path>
    <path d="M361.85 137.36v-26.79H149.64v26.79h147.38c5 .21 7.9 2.89 7.77 7.19-.12 4.11-2.87 6.6-7.78 6.61-19.84.06-39.69 0-59.53 0H152.1c-11.34 0-16.62-5.3-16.65-16.62 0-7.84-.09-15.69 0-23.53.14-8.7 5.87-14.52 14.5-14.52q105.68-.06 211.36 0c8.66 0 14.42 5.76 14.55 14.46s.14 17.22 0 25.84c-.14 8.41-5.88 14.2-14.25 14.32-10.3.15-20.61.1-30.92 0-4.86 0-7.64-2.56-7.73-6.67-.09-4.28 2.8-7 7.83-7.11 8.61-.11 17.23 0 25.84 0ZM335.45 303.48c-2.87 2.35-5.57 4.38-8.08 6.64-3.89 3.51-8.18 4.89-13.09 2.57s-6.08-6.42-6-11.44c.12-13.22.14-26.43-.06-39.65a9.83 9.83 0 0 0-2.36-6c-11.93-13.16-14.43-31.66-6.11-47.06S325 185 342.84 188c16.41 2.73 30 16.44 32.61 33.37 1.93 12.7-1.58 23.95-9.92 33.83a12.4 12.4 0 0 0-2.75 7.19c-.28 12.6-.2 25.2-.1 37.8.05 5.41-.92 10.2-6.39 12.67s-9.77.21-13.77-3.45c-2.15-2.01-4.47-3.78-7.07-5.93ZM362.06 228a26.66 26.66 0 0 0-26.33-27 26.74 26.74 0 1 0-.41 53.48A26.57 26.57 0 0 0 362.06 228Zm-13.54 68.86v-30c-4.53.54-8.77 1.43-13 1.43s-8.71-.88-13-1.36v29.89c8.77-10.82 17.22-10.33 26 .04ZM187.34 369.46c-3.15.73-5.18 1.16-7.18 1.69a88.09 88.09 0 0 1-37.95 1.66c-5-.87-7.35-3.93-6.6-8.2.68-3.94 4.09-6.06 8.73-5.4 24.23 3.4 45.76-2.21 63.92-19.1 3-2.78 6.22-3.3 9.55-.69 3.07 2.41 3.41 6.09.79 9.88-8 11.64-16.22 23.17-24.19 34.86a55.54 55.54 0 0 0-5.74 11.33 60.74 60.74 0 0 0 18-16.16c.83-1.11 1.51-2.34 2.43-3.36 2.48-2.74 5.53-3.39 8.71-1.5s4 4.74 3 8.34c-.85 2.9-2 5.92-1.85 8.85.22 5.43 5 7.53 8.94 3.88 3.36-3.07 6.06-6.9 8.76-10.61 2.15-2.94 4.43-5.2 8.38-4.21s5 3.88 5.4 7.59c1.07 10.16 5.08 14 15.25 13.87 6.56-.12 13.12-1.26 19.64-2.16 4.63-.64 8.07 1.08 9 5a6.67 6.67 0 0 1-5.86 8.33c-8.79 1.24-17.67 2.57-26.5 2.5-9-.07-16.64-4.14-21.3-12.42-16.74 11.57-21.91 11.08-34.21-2.94-3.93 2.71-7.67 5.7-11.78 8.05-5.38 3.08-11.12 4-16.38-.3s-5.44-10-3.36-15.61 5.15-10.76 7.92-16.05c1.07-2.18 2.54-4.13 4.48-7.12ZM199.26 219.25h54.43c5.87 0 8.9 2.46 8.8 7-.1 4.23-3.22 6.82-8.67 6.82q-54.88.06-109.78 0c-5.5 0-8.49-2.57-8.53-6.93s2.81-6.87 8.4-6.88q27.68-.05 55.35-.01ZM185.05 296.93h-42c-3.6 0-6.35-1.5-7.32-5.1-.89-3.3.14-6.18 3.31-7.78a10.08 10.08 0 0 1 4.42-.92q42-.08 84 0c5.08 0 8 2.62 8 6.85s-3 6.93-8 6.95c-14.12.07-28.27 0-42.41 0ZM171.22 201h-27.66c-5.15 0-8-2.53-8.05-6.8s2.88-7 7.93-7q27.66-.09 55.31 0c5.07 0 8.05 2.67 8.08 6.86s-2.93 6.88-8 6.91c-9.18.03-18.4.03-27.61.03ZM227.94 264.88h-26.27c-5.38 0-8.58-2.67-8.57-6.86s3.28-6.93 8.6-6.94q26.27-.09 52.54 0c5.34 0 8.38 2.84 8.23 7.2s-3 6.56-8.26 6.6c-8.76.05-17.51 0-26.27 0ZM154.08 264.85c-3.85 0-7.7.12-11.54 0-4.28-.18-6.83-2.62-7-6.41a6.53 6.53 0 0 1 6.68-7.24q12.23-.39 24.45 0a6.81 6.81 0 0 1 6.7 6.9c0 3.78-2.94 6.6-7.28 6.75-4.01.15-8.01 0-12.01 0ZM245 201c-3.52 0-7.05.12-10.57 0-4.07-.18-6.69-2.86-6.79-6.63a6.58 6.58 0 0 1 6.41-7c7.34-.24 14.71-.25 22.06 0a6.56 6.56 0 0 1 6.33 7.08c-.13 3.75-2.78 6.39-6.86 6.56-3.49.07-7.02-.01-10.58-.01Z"></path>
  </symbol>
  <symbol version="1.1" id="clean" xmlns="http://www.w3.org/2000/svg" xmlns:xlink="http://www.w3.org/1999/xlink" x="0px" y="0px" xml:space="preserve" viewBox="0 0 463 463">
    <g>
      <path d="M383.5,0h-304C66.542,0,56,10.542,56,23.5v416c0,12.958,10.542,23.5,23.5,23.5h304c12.958,0,23.5-10.542,23.5-23.5v-416
		C407,10.542,396.458,0,383.5,0z M71,95h321v321H71V95z M392,23.5V80H183V15h200.5C388.187,15,392,18.813,392,23.5z M79.5,15H168v65
		H71V23.5C71,18.813,74.813,15,79.5,15z M383.5,448h-304c-4.687,0-8.5-3.813-8.5-8.5V431h321v8.5C392,444.187,388.187,448,383.5,448
		z"></path>
      <path d="M231.5,128C170.019,128,120,178.019,120,239.5S170.019,351,231.5,351S343,300.981,343,239.5S292.981,128,231.5,128z
		 M231.5,336c-53.21,0-96.5-43.29-96.5-96.5s43.29-96.5,96.5-96.5s96.5,43.29,96.5,96.5S284.71,336,231.5,336z"></path>
      <path d="M231.5,71c12.958,0,23.5-10.542,23.5-23.5S244.458,24,231.5,24S208,34.542,208,47.5S218.542,71,231.5,71z M231.5,39
		c4.687,0,8.5,3.813,8.5,8.5s-3.813,8.5-8.5,8.5s-8.5-3.813-8.5-8.5S226.813,39,231.5,39z"></path>
      <path d="M95.5,71h48c4.142,0,7.5-3.358,7.5-7.5s-3.358-7.5-7.5-7.5h-48c-4.142,0-7.5,3.358-7.5,7.5S91.358,71,95.5,71z"></path>
      <path d="M279.5,55h24c4.142,0,7.5-3.358,7.5-7.5s-3.358-7.5-7.5-7.5h-24c-4.142,0-7.5,3.358-7.5,7.5S275.358,55,279.5,55z"></path>
      <path d="M335.5,55h24c4.142,0,7.5-3.358,7.5-7.5s-3.358-7.5-7.5-7.5h-24c-4.142,0-7.5,3.358-7.5,7.5S331.358,55,335.5,55z"></path>
      <path d="M231.5,160c-43.836,0-79.5,35.664-79.5,79.5s35.664,79.5,79.5,79.5s79.5-35.664,79.5-79.5S275.336,160,231.5,160z
		 M231.5,304c-35.565,0-64.5-28.935-64.5-64.5s28.935-64.5,64.5-64.5s64.5,28.935,64.5,64.5S267.065,304,231.5,304z"></path>
    </g>
    <g></g>
    <g></g>
    <g></g>
    <g></g>
    <g></g>
    <g></g>
    <g></g>
    <g></g>
    <g></g>
    <g></g>
    <g></g>
    <g></g>
    <g></g>
    <g></g>
    <g></g>
  </symbol>
  <symbol version="1.1" id="debris" xmlns="http://www.w3.org/2000/svg" xmlns:xlink="http://www.w3.org/1999/xlink" x="0px" y="0px" xml:space="preserve" viewBox="0 0 511.998 511.998">
    <g>
      <g>
        <path d="M54.517,310.117l-25.6-10.786c-4.352-1.818-9.353,0.213-11.179,4.557c-1.826,4.343,0.213,9.352,4.557,11.179l25.6,10.778
			c1.075,0.461,2.202,0.674,3.302,0.674c3.328,0,6.494-1.963,7.876-5.222C60.9,316.944,58.861,311.944,54.517,310.117z"></path>
      </g>
    </g>
    <g>
      <g>
        <path d="M211.335,376.14L88.642,324.479c-4.352-1.826-9.353,0.205-11.179,4.557c-1.826,4.343,0.213,9.353,4.557,11.179
			l122.701,51.661c1.075,0.461,2.202,0.674,3.302,0.674c3.328,0,6.494-1.963,7.868-5.231
			C217.717,382.975,215.678,377.966,211.335,376.14z"></path>
      </g>
    </g>
    <g>
      <g>
        <path d="M35.898,381.046l-25.6-5.393c-4.608-0.981-9.139,1.971-10.112,6.588c-0.973,4.617,1.971,9.139,6.588,10.112l25.6,5.393
			c0.597,0.12,1.186,0.179,1.766,0.179c3.951,0,7.501-2.756,8.346-6.767C43.458,386.542,40.514,382.019,35.898,381.046z"></path>
      </g>
    </g>
    <g>
      <g>
        <path d="M213.024,418.329L70.031,388.223c-4.634-0.981-9.139,1.98-10.112,6.588c-0.973,4.617,1.98,9.139,6.588,10.112
			L209.5,435.028c0.597,0.119,1.186,0.179,1.766,0.179c3.951,0,7.501-2.756,8.346-6.767
			C220.585,423.824,217.632,419.301,213.024,418.329z"></path>
      </g>
    </g>
    <g>
      <g>
        <path d="M73.001,231.833l-25.6-17.067c-3.925-2.62-9.224-1.545-11.836,2.364c-2.62,3.925-1.553,9.225,2.364,11.836l25.6,17.067
			c1.459,0.973,3.098,1.434,4.727,1.434c2.756,0,5.47-1.331,7.108-3.797C77.984,239.743,76.918,234.444,73.001,231.833z"></path>
      </g>
    </g>
    <g>
      <g>
        <path d="M226.584,334.224l-119.458-79.642c-3.917-2.611-9.216-1.562-11.836,2.364c-2.62,3.925-1.553,9.225,2.364,11.836
			l119.458,79.642c1.459,0.973,3.098,1.434,4.727,1.434c2.756,0,5.47-1.331,7.108-3.797
			C231.567,342.134,230.5,336.835,226.584,334.224z"></path>
      </g>
    </g>
    <g>
      <g>
        <path d="M454.099,281.599H426.75c-4.71,0-8.533,3.823-8.533,8.533c0,4.71,3.823,8.533,8.533,8.533h27.349
			c4.71,0,8.533-3.823,8.533-8.533C462.633,285.422,458.81,281.599,454.099,281.599z"></path>
      </g>
    </g>
    <g>
      <g>
        <path d="M329.88,271.316l-25.873-21.99c-3.593-3.063-8.977-2.62-12.032,0.973c-3.055,3.584-2.62,8.977,0.973,12.023l25.873,21.99
			c1.604,1.365,3.567,2.031,5.521,2.031c2.415,0,4.813-1.015,6.511-3.004C333.907,279.756,333.472,274.363,329.88,271.316z"></path>
      </g>
    </g>
    <g>
      <g>
        <path d="M401.065,255.999c-18.825,0-34.133,15.309-34.133,34.133c0,18.825,15.309,34.133,34.133,34.133
			c18.825,0,34.133-15.309,34.133-34.133C435.198,271.308,419.889,255.999,401.065,255.999z M401.065,307.199
			c-9.412,0-17.067-7.654-17.067-17.067c0-9.412,7.654-17.067,17.067-17.067c9.412,0,17.067,7.654,17.067,17.067
			C418.131,299.545,410.477,307.199,401.065,307.199z"></path>
      </g>
    </g>
    <g>
      <g>
        <path d="M349.865,255.999c-18.825,0-34.133,15.309-34.133,34.133c0,18.825,15.309,34.133,34.133,34.133
			c18.825,0,34.133-15.309,34.133-34.133C383.998,271.308,368.689,255.999,349.865,255.999z M349.865,307.199
			c-9.412,0-17.067-7.654-17.067-17.067c0-9.412,7.654-17.067,17.067-17.067c9.412,0,17.067,7.654,17.067,17.067
			C366.931,299.545,359.277,307.199,349.865,307.199z"></path>
      </g>
    </g>
    <g>
      <g>
        <path d="M426.665,401.066h-44.399c-13.892,0-26.539-2.389-37.598-7.091c-2.628-1.118-5.658-0.845-8.047,0.734
			c-2.389,1.579-3.823,4.25-3.823,7.117v33.374c0,18.825,15.309,34.133,34.133,34.133h34.133c18.825,0,34.133-15.309,34.133-34.133
			v-25.6C435.198,404.889,431.375,401.066,426.665,401.066z M418.131,435.199c0,9.412-7.654,17.067-17.067,17.067h-34.133
			c-9.412,0-17.067-7.654-17.067-17.067v-21.342c10.044,2.842,20.89,4.275,32.401,4.275h35.866V435.199z"></path>
      </g>
    </g>
    <g>
      <g>
        <path d="M401.065,358.399h-51.2c-4.71,0-8.533,3.823-8.533,8.533s3.823,8.533,8.533,8.533h51.2c4.71,0,8.533-3.823,8.533-8.533
			S405.775,358.399,401.065,358.399z"></path>
      </g>
    </g>
    <g>
      <g>
        <path d="M351.512,173.61c-1.621-1.869-3.968-2.944-6.443-2.944h-37.871c-14.114,0-25.6,11.486-25.6,25.6s11.486,25.6,25.6,25.6
			h25.446c2.219,0,4.352-0.87,5.956-2.415l8.772-8.533c1.348-1.314,2.227-3.038,2.492-4.907l3.652-25.6
			C353.867,177.962,353.133,175.478,351.512,173.61z M333.37,200.712l-4.198,4.087h-21.973c-4.71,0-8.533-3.831-8.533-8.533
			c0-4.702,3.823-8.533,8.533-8.533h28.032L333.37,200.712z"></path>
      </g>
    </g>
    <g>
      <g>
        <path d="M503.465,42.666H392.608c-23.526,0-42.667,19.14-42.667,42.667c0,4.71,3.823,8.533,8.533,8.533h144.99
			c4.71,0,8.533-3.823,8.533-8.533V51.199C511.998,46.489,508.175,42.666,503.465,42.666z M494.931,76.799H368.476
			c3.516-9.933,13.005-17.067,24.132-17.067h102.323V76.799z"></path>
      </g>
    </g>
    <g>
      <g>
        <path d="M503.465,76.799h-144.99c-4.241,0-7.842,3.123-8.448,7.322L332.96,203.587c-0.35,2.449,0.384,4.932,2.005,6.801
			s3.968,2.944,6.443,2.944h162.057c4.71,0,8.533-3.823,8.533-8.533V85.332C511.998,80.622,508.175,76.799,503.465,76.799z
			 M494.931,196.266H351.247l14.626-102.4h129.058V196.266z"></path>
      </g>
    </g>
    <g>
      <g>
        <path d="M503.465,196.266H341.408c-2.219,0-4.361,0.87-5.956,2.415l-34.543,33.621c-0.546,0.546-1.024,1.152-1.417,1.818
			c-17.365,29.781-22.332,64.606-13.969,98.048l5.888,23.569c9.771,39.066,43.733,62.396,90.854,62.396h121.199
			c4.71,0,8.533-3.823,8.533-8.533v-204.8C511.998,200.089,508.175,196.266,503.465,196.266z M494.931,401.066H382.266
			c-38.776,0-66.551-18.492-74.3-49.476l-5.888-23.569c-7.177-28.723-3.063-58.624,11.588-84.309l31.206-30.379h150.059V401.066z"></path>
      </g>
    </g>
    <g>
      <g>
        <path d="M503.465,255.999H486.33c-11.136,0-21.871,4.676-29.457,12.826c-7.586,8.149-11.486,19.191-10.684,30.404l3.994,47.386
			c1.493,20.966,19.132,37.385,40.149,37.385h13.133c4.71,0,8.533-3.823,8.533-8.533V264.532
			C511.998,259.822,508.175,255.999,503.465,255.999z M494.931,366.932h-4.599c-12.109,0-22.263-9.455-23.134-21.649l-3.994-47.386
			c-0.461-6.485,1.732-12.689,6.161-17.451s10.462-7.381,16.964-7.381h8.602V366.932z"></path>
      </g>
    </g>
    <g>
      <g>
        <path d="M503.465,452.266H127.998c-4.71,0-8.533,3.823-8.533,8.533s3.823,8.533,8.533,8.533h375.467
			c4.71,0,8.533-3.823,8.533-8.533S508.175,452.266,503.465,452.266z"></path>
      </g>
    </g>
    <g></g>
    <g></g>
    <g></g>
    <g></g>
    <g></g>
    <g></g>
    <g></g>
    <g></g>
    <g></g>
    <g></g>
    <g></g>
    <g></g>
    <g></g>
    <g></g>
    <g></g>
  </symbol>
  <symbol id="garden" enable-background="new 0 0 64 64" xmlns="http://www.w3.org/2000/svg" viewBox="0 0 64 64">
    <path d="m57 25.59 1.315.893c.167.113.362.173.562.173.062 0 .126-.006.188-.018.26-.05.49-.201.639-.421l2.246-3.311c.311-.457.191-1.079-.266-1.389l-29.122-19.761c-.34-.23-.783-.23-1.123 0l-29.124 19.762c-.457.31-.576.932-.266 1.389l2.246 3.311c.148.22.379.371.639.421.262.05.531-.007.75-.155l1.316-.894v10.005c-.586.256-1.065.729-1.316 1.351-1.681 4.156-3.684 9.618-3.684 12.054 0 3.59 2.09 6.378 5 6.903v4.097h-5v2h60v-2h-5zm-51.611-1.323-1.123-1.657 27.734-18.819 27.734 18.819-1.123 1.656-26.049-17.676c-.17-.115-.366-.173-.562-.173s-.392.058-.562.173zm-1.389 24.733c0-1.625 1.289-5.745 3.537-11.304.115-.283.362-.313.463-.313s.348.03.463.313c2.248 5.559 3.537 9.679 3.537 11.304 0 2.897-1.683 5-4 5s-4-2.103-4-5zm5 6.903c2.91-.525 5-3.313 5-6.903 0-2.436-2.003-7.898-3.684-12.054-.251-.622-.73-1.095-1.316-1.351v-11.362l23-15.607 23 15.607v19.465l-.168-.252c-.371-.557-1.293-.557-1.664 0l-2 3c-.109.163-.168.357-.168.554v2h-2v-2c0-.197-.059-.391-.168-.555l-2-3c-.371-.557-1.293-.557-1.664 0l-2 3c-.109.164-.168.358-.168.555v2h-2v-2c0-.197-.059-.391-.168-.555l-2-3c-.371-.557-1.293-.557-1.664 0l-2 3c-.109.164-.168.358-.168.555v13h-6v-19c0-.553-.447-1-1-1h-11c-.553 0-1 .447-1 1v19h-7zm30 4.097h-2v-12.697l1-1.5 1 1.5zm2-9h2v2h-2zm0 4h2v5h-2zm6 5h-2v-12.697l1-1.5 1 1.5zm2-9h2v2h-2zm0 4h2v5h-2zm-22 5h-9v-18h9zm26 0v-12.697l1-1.5 1 1.5v12.697z"></path>
    <path d="m29 33h6c2.206 0 4-1.794 4-4v-6c0-2.206-1.794-4-4-4h-6c-2.206 0-4 1.794-4 4v6c0 2.206 1.794 4 4 4zm-2-4v-2h4v4h-2c-1.103 0-2-.897-2-2zm8 2h-2v-4h4v2c0 1.103-.897 2-2 2zm2-8v2h-4v-4h2c1.103 0 2 .897 2 2zm-8-2h2v4h-4v-2c0-1.103.897-2 2-2z"></path>
    <path d="m23 50h2v2h-2z"></path>
  </symbol>
  <symbol id="house-repair" xmlns="http://www.w3.org/2000/svg" viewBox="0 0 512 512">
    <path d="M58.94,247c-5.23,4.12-9.41,7.49-13.66,10.76-12.11,9.34-26.67,8.07-35.44-3.06S3.46,229,15.45,219.56Q117.77,138.85,220.12,58.2q14.69-11.58,29.37-23.13c5.12-4,7.88-4.07,13,0q37.13,29.19,74.2,58.45c1.43,1.13,2.92,2.21,5,3.78.19-1.92.43-3.29.43-4.67,0-10.46,0-20.91,0-31.37,0-7.71,2.67-10.32,10.39-10.34q25-.06,50,0c7.37,0,10,2.71,10,10.13,0,29.18.06,58.35-.05,87.53a8.44,8.44,0,0,0,3.58,7.6q40.4,31.56,80.55,63.44c12.44,9.85,14.29,25.44,4.52,36.36a23.88,23.88,0,0,1-32.41,3.31c-5-3.66-9.8-7.61-15.68-12.19V468.23c0,9.88-1.86,11.73-11.8,11.73H70.69c-9.92,0-11.75-1.84-11.75-11.76V247ZM256.12,91.74c-1.85,1.38-3.47,2.54-5,3.77q-86.26,68-172.57,136a9.46,9.46,0,0,0-4.11,8.42q.16,109.28.08,218.54V464h363V459q0-109.79.08-219.56c0-3.63-1.29-5.8-4-8q-70.49-55.41-140.83-111C280.57,111,268.42,101.42,256.12,91.74ZM28.35,249.45c3.38-1.94,5.83-3,7.87-4.59,11.31-8.77,22.52-17.67,33.76-26.53L249.3,77c5.49-4.33,7.9-4.37,13.39-.07q14.93,11.67,29.78,23.42L454.33,227.92c7.8,6.15,15.53,12.4,23.45,18.39a8.4,8.4,0,0,0,12.12-1.46c2.65-3.54,2-8.4-1.66-11.78-.86-.8-1.8-1.52-2.73-2.25q-45.21-35.65-90.44-71.29Q327.42,106.21,259.85,52.81c-3-2.34-4.77-2.27-7.67,0Q150.9,132.86,49.5,212.7q-12.7,10-25.38,20c-3.47,2.74-4.88,6.51-2.84,10.27C22.68,245.58,25.8,247.22,28.35,249.45Zm368.24-108.8V67.06H358c0,9.73.84,19.23-.22,28.51-1.26,11,2.55,18.11,11.74,24.05S387,133.07,396.59,140.65Z"></path>
    <path d="M188.89,399.32l-11.26-12.19c-7.75,6.58-15.3,13-22.88,19.42-7,5.92-12.73,4.18-15.37-4.64-10.71-35.75,19.31-71.06,56.34-66,4.63.63,7.77-.1,10.92-3.68,4.78-5.42,10.15-10.3,15.67-15.81-1.38-1.48-2.55-2.81-3.79-4.06-17.37-17.42-34.63-34.94-52.21-52.14a37.68,37.68,0,0,0-11.72-7.41c-9.29-3.88-11.77-12.5-14.58-20.58-.83-2.4,1.12-6.64,3.08-9,4.79-5.63,10.32-10.62,15.56-15.86,3.66-3.66,8-4.23,12.51-2.15,8.66,4,16.91,8.49,19.22,19.07a9.39,9.39,0,0,0,2.72,4.14q28.16,28.3,56.41,56.52c.58.58,1.26,1.07,2.22,1.88,6.49-6.51,13-12.84,19.2-19.45,1-1,1.08-3.42.8-5.05-6.44-38.16,28.9-69.87,65.77-58.94,8.88,2.64,10.57,8.29,4.57,15.41-6.38,7.58-12.79,15.14-19.27,22.81l11.73,11.68c7.63-6.48,15.18-12.9,22.75-19.31,7-5.91,12.75-4.15,15.37,4.68,10.52,35.39-18.79,70.55-55.39,66-5.68-.7-9.61.29-12.92,4.79-1,1.32-2.46,2.28-4.13,3.77,1.51,1.62,2.69,3,3.94,4.21,19.75,19.8,39.64,39.46,59.21,59.44,17.34,17.68,13.76,45.26-7.15,57.59-14.28,8.42-31.86,6-44.42-6.51q-29.4-29.2-58.55-58.67a51.87,51.87,0,0,1-3.94-5.27c-3.34,3.61-6.05,6.13-8.2,9.07a7.29,7.29,0,0,0-.82,5.05c6.48,38.15-28.82,69.84-65.75,59-8.88-2.62-10.58-8.29-4.59-15.4C176.33,414.17,182.73,406.61,188.89,399.32ZM153.59,387c6.28-5.34,12.22-10.47,18.24-15.5,5.07-4.24,8.45-4.1,13.2.57,5.76,5.67,11.43,11.43,17.14,17.15,7.67,7.69,7.73,9.71.63,18.12-4.27,5-8.5,10.12-13.13,15.62,23.12,1.08,40.62-22.58,34.15-45.26-1.63-5.7-.36-9.47,3.68-13.47q36.41-36.09,72.44-72.54c3.89-3.93,7.57-5.11,13-3.55,12.32,3.52,23.72,1,33.49-7.39,8-6.82,12-15.68,12.51-27.43-7,5.94-13.06,11.2-19.24,16.32-4.28,3.54-7.94,3.64-11.7,0q-10.89-10.55-21.4-21.47c-3.5-3.64-3.37-7.6.06-11.76,4.28-5.2,8.7-10.27,13-15.44.76-.91,1.33-2,2.19-3.27-22.73-.75-40.18,22.55-33.84,44.9,1.74,6.14.35,10.12-4,14.32-11.7,11.35-23.08,23-34.59,34.55-12.7,12.73-25.47,25.4-38.05,38.24-3.48,3.55-7,3.93-11.82,3.16-6.33-1-13.15-1.63-19.34-.38C164.46,355.65,152.18,371.85,153.59,387Zm126-52.48a45,45,0,0,1,4.91,3.67q29,28.91,57.83,57.9a26.72,26.72,0,0,1,3.7,4.12c2.31,3.57,2,7.16-1.13,10.05-2.93,2.73-6.41,2.8-9.72.59a29.42,29.42,0,0,1-4.06-3.77l-58.16-58.27c-1.25-1.25-2.57-2.43-3.83-3.62l-8.64,8.47a4.17,4.17,0,0,0,.5,1.09c21.27,21.34,42.49,42.73,63.88,64,4.13,4.1,9.58,5.58,15.38,4.87,8.42-1,14.38-5.62,17.24-13.61,3-8.47.76-15.89-5.5-22.18Q322,357.68,292.05,327.63c-.92-.92-2-1.7-3.06-2.62Zm-38.27-36.89a43.86,43.86,0,0,1-5.07-3.73q-22.55-22.46-45-45c-6.83-6.88-14.37-13.08-17.52-23-1.53-4.83-6.08-5.07-9.75-1.43l-3.22,3.22c-5,5-4.14,8.13,2.23,11.57,5.22,2.81,10.49,6,14.71,10.14,17.49,17,34.6,34.46,51.85,51.74,1.27,1.27,2.61,2.45,3.79,3.55Z"></path>
  </symbol>
  <symbol xmlns="http://www.w3.org/2000/svg" viewBox="0 0 512 512" id="light-bulb">
    <path d="m196.265625 452.265625c.039063 11.320313 7.523437 21.265625 18.386719 24.4375 3.855468 19.972656 21.015625 34.625 41.347656 35.296875 20.332031-.671875 37.492188-15.320312 41.347656-35.292969 10.863282-3.175781 18.347656-13.121093 18.386719-24.441406v-81.066406l27.289063-20.46875c4.296874-3.230469 6.832031-8.289063 6.84375-13.664063v-16.148437c48.355468-32.796875 77.164062-87.558594 76.800781-145.984375 1.054687-95.386719-75.285157-173.632813-170.667969-174.933594-95.382812 1.300781-171.722656 79.546875-170.667969 174.933594-.363281 58.425781 28.445313 113.1875 76.800781 145.984375v16.148437c.011719 5.371094 2.539063 10.425782 6.835938 13.652344l27.296875 20.480469zm102.402344-25.597656h-85.335938v-17.066407h85.335938zm0-34.132813h-85.335938v-17.070312h85.335938zm-42.667969 102.398438c-10.507812-.414063-19.707031-7.167969-23.25-17.066406h46.5c-3.542969 9.898437-12.742188 16.652343-23.25 17.066406zm34.132812-34.132813h-68.265624c-4.710938-.003906-8.53125-3.824219-8.535157-8.535156v-8.53125h85.335938v8.53125c-.003907 4.710937-3.824219 8.53125-8.535157 8.535156zm-187.734374-285.867187c-1.0625-85.964844 67.640624-156.574219 153.601562-157.867188 85.960938 1.292969 154.664062 71.902344 153.601562 157.867188.355469 53.019531-25.886718 102.6875-69.890624 132.265625h-55.464844l22.660156-83.085938c1.238281-4.546875-1.441406-9.242187-5.988281-10.480469-4.550781-1.242187-9.242188 1.441407-10.480469 5.988282l-23.890625 87.578125h-21.09375l-23.886719-87.578125c-1.242187-4.546875-5.933594-7.230469-10.480468-5.988282-4.546876 1.238282-7.230469 5.933594-5.988282 10.480469l22.664063 83.085938h-55.46875c-44.003907-29.578125-70.25-79.246094-69.894531-132.265625zm76.800781 149.332031h59.699219l.027343.003906.03125-.003906h34.085938l.03125.003906.027343-.003906h59.699219v12.800781l-28.441406 21.332032h-96.71875l-28.441406-21.332032zm0 0"></path>
    <path d="m247.464844 230.398438h17.070312c4.710938 0 8.53125-3.820313 8.53125-8.53125 0-4.714844-3.820312-8.535157-8.53125-8.535157h-17.070312c-4.710938 0-8.53125 3.820313-8.53125 8.535157 0 4.710937 3.820312 8.53125 8.53125 8.53125zm0 0"></path>
    <path d="m4.300781 118.34375 59.734375 34.132812c4.082032 2.277344 9.242188.839844 11.5625-3.222656 2.320313-4.058594.9375-9.230468-3.097656-11.597656l-59.734375-34.132812c-4.085937-2.277344-9.242187-.839844-11.5625 3.222656-2.320313 4.058594-.9375 9.230468 3.097656 11.597656zm0 0"></path>
    <path d="m8.542969 256c1.480469 0 2.9375-.386719 4.222656-1.125l59.734375-34.132812c4.035156-2.363282 5.417969-7.535157 3.097656-11.597657-2.320312-4.0625-7.480468-5.496093-11.5625-3.21875l-59.734375 34.132813c-3.359375 1.921875-5.007812 5.863281-4.011719 9.601562.992188 3.742188 4.382813 6.34375 8.253907 6.339844zm0 0"></path>
    <path d="m8.535156 187.734375h51.199219c4.710937 0 8.53125-3.820313 8.53125-8.535156 0-4.710938-3.820313-8.53125-8.53125-8.53125h-51.199219c-4.714844 0-8.535156 3.820312-8.535156 8.53125 0 4.714843 3.820312 8.535156 8.535156 8.535156zm0 0"></path>
    <path d="m443.742188 153.601562c1.480468 0 2.9375-.390624 4.222656-1.125l59.734375-34.132812c4.035156-2.367188 5.417969-7.539062 3.097656-11.597656-2.320313-4.0625-7.476563-5.5-11.5625-3.222656l-59.734375 34.132812c-3.359375 1.921875-5.007812 5.863281-4.011719 9.605469.996094 3.738281 4.382813 6.339843 8.253907 6.339843zm0 0"></path>
    <path d="m439.5 220.742188 59.734375 34.132812c4.085937 2.277344 9.242187.839844 11.5625-3.21875 2.320313-4.0625.9375-9.234375-3.097656-11.597656l-59.734375-34.132813c-2.648438-1.550781-5.925782-1.5625-8.582032-.023437-2.660156 1.539062-4.285156 4.382812-4.261718 7.453125.023437 3.070312 1.695312 5.890625 4.378906 7.386719zm0 0"></path>
    <path d="m503.464844 170.667969h-51.199219c-4.710937 0-8.53125 3.820312-8.53125 8.53125 0 4.714843 3.820313 8.535156 8.53125 8.535156h51.199219c4.714844 0 8.535156-3.820313 8.535156-8.535156 0-4.710938-3.820312-8.53125-8.535156-8.53125zm0 0"></path>
  </symbol>
  <symbol xmlns="http://www.w3.org/2000/svg" id="living" viewBox="0 0 512 512">
    <path d="M471.982,417.008Q472,416.5,472,416a32.036,32.036,0,0,0-32-32V236l28.8-21.6a8,8,0,0,0-.08-12.859L400,151.322V64a8,8,0,0,0,8-8V24a8,8,0,0,0-8-8H320a8,8,0,0,0-8,8V56a8,8,0,0,0,8,8V92.861l-59.28-43.32a8,8,0,0,0-9.44,0l-208,152A8,8,0,0,0,43.2,214.4L72,236V384a32.036,32.036,0,0,0-32,32q0,.5.018,1.008A32,32,0,0,0,48,480H464a32,32,0,0,0,7.982-62.992ZM328,32h64V48H328Zm8,72V64h48v75.63L335.243,104ZM256,65.908,450.555,208.084l-18.628,13.971L260.706,97.53a8,8,0,0,0-9.412,0L80.073,222.055,61.445,208.084ZM32,448a16.019,16.019,0,0,1,15.76-16l.019,0c.409.057.818.106,1.235.133a8,8,0,0,0,8.023-10.716A15.727,15.727,0,0,1,56,416a16.019,16.019,0,0,1,16-16v64H48A16.019,16.019,0,0,1,32,448Zm344,16H280V288h96Zm16,0V280a8,8,0,0,0-8-8H272a8,8,0,0,0-8,8V464H88V236.074L256,113.892,424,236.074V464Zm72,0H440V400a16.019,16.019,0,0,1,16,16,15.727,15.727,0,0,1-1.037,5.421,8,8,0,0,0,8.023,10.716c.417-.027.826-.076,1.235-.133l.019,0a16,16,0,0,1-.24,32Z"></path>
    <path d="M224,272H128a8,8,0,0,0-8,8V392a8,8,0,0,0,8,8h96a8,8,0,0,0,8-8V280A8,8,0,0,0,224,272Zm-8,56H184V288h32Zm-48-40v40H136V288Zm-32,56h32v40H136Zm48,40V344h32v40Z"></path>
    <circle cx="304" cy="368" r="8" transform="translate(-152.323 508.032) rotate(-67.5)"></circle>
  </symbol>
  <symbol version="1.1" id="link" xmlns="http://www.w3.org/2000/svg" xmlns:xlink="http://www.w3.org/1999/xlink" x="0px" y="0px" xml:space="preserve" viewBox="0 0 511.998 511.998">
    <g>
      <g>
        <path d="M364.376,147.576c-16.262-16.262-42.729-16.262-58.992,0L147.539,305.422c-7.875,7.875-12.218,18.353-12.218,29.496
			c0,11.143,4.343,21.621,12.218,29.496c8.131,8.131,18.813,12.201,29.496,12.201c10.691,0,21.373-4.07,29.496-12.201
			l157.846-157.846c7.884-7.875,12.218-18.353,12.218-29.496C376.594,165.929,372.26,155.451,364.376,147.576z M352.311,194.503
			L194.466,352.349c-9.616,9.616-25.255,9.616-34.863,0c-4.65-4.659-7.218-10.844-7.218-17.431s2.568-12.773,7.218-17.431
			l157.846-157.846c4.812-4.812,11.117-7.21,17.431-7.21c6.322,0,12.628,2.406,17.431,7.21c4.659,4.659,7.218,10.844,7.218,17.431
			S356.97,189.845,352.311,194.503z"></path>
      </g>
    </g>
    <g>
      <g>
        <path d="M479.561,50.497L461.455,32.4c-20.87-20.87-48.727-32.363-78.428-32.363c-29.709,0-57.558,11.493-78.428,32.363
			l-50.929,50.929c-37.107,37.098-43.011,95.834-14.044,139.664l5.759,8.711l49.111-49.12l-2.014-5.188
			c-1.945-5.008-2.935-10.264-2.935-15.64c0-11.476,4.394-22.184,12.372-30.17l50.92-50.929c7.986-7.969,18.703-12.363,30.17-12.363
			c11.476,0,22.192,4.386,30.17,12.363l18.114,18.105c16.638,16.629,16.638,43.693,0,60.331l-50.92,50.929
			c-11.706,11.689-30.033,15.546-45.818,9.428l-5.179-2.005l-49.111,49.12l8.711,5.759c18.617,12.303,39.922,18.319,61.125,18.319
			c28.694,0,57.2-11.024,78.53-32.354l50.929-50.929C522.81,164.111,522.81,93.738,479.561,50.497z M467.505,195.28l-50.929,50.929
			c-28.873,28.881-73.249,35.443-109.033,17.201l26.245-26.262c5.35,1.519,10.853,2.287,16.424,2.287
			c16.032,0,31.032-6.169,42.234-17.363l50.929-50.929c23.284-23.284,23.284-61.176,0-84.46L425.27,68.576
			c-11.211-11.194-26.202-17.363-42.234-17.363c-16.032,0-31.032,6.169-42.234,17.363l-50.92,50.929
			c-11.203,11.194-17.372,26.202-17.372,42.234c0,5.589,0.768,11.092,2.278,16.433l-26.245,26.237
			c-18.216-35.784-11.672-80.151,17.201-109.033l50.929-50.929c17.645-17.645,41.211-27.363,66.363-27.363
			c25.144,0,48.719,9.718,66.363,27.363l18.105,18.097C504.099,99.139,504.099,158.685,467.505,195.28z"></path>
      </g>
    </g>
    <g>
      <g>
        <path d="M272.279,289.006l-5.759-8.711l-49.111,49.111l2.039,5.196c6.22,15.844,2.5,33.83-9.471,45.809l-50.929,50.929
			c-7.986,7.969-18.703,12.363-30.17,12.363c-11.476,0-22.192-4.386-30.17-12.363l-18.097-18.097
			c-7.978-7.978-12.372-18.694-12.372-30.17c0-11.476,4.394-22.184,12.372-30.17l50.92-50.929
			c11.723-11.715,30.144-15.546,45.818-9.428l5.188,2.005l49.12-49.12l-8.711-5.759c-43.821-28.95-102.557-23.054-139.664,14.044
			l-50.92,50.929C11.493,325.515,0,353.373,0,383.073s11.493,57.558,32.363,78.419l18.105,18.105
			c20.861,20.87,48.719,32.363,78.428,32.363c29.701,0,57.55-11.493,78.419-32.363l50.92-50.929
			C295.342,391.571,301.246,332.836,272.279,289.006z M246.188,416.605l-50.92,50.929c-17.645,17.645-41.219,27.363-66.363,27.363
			c-25.153,0-48.719-9.718-66.363-27.363l-18.105-18.105c-17.653-17.645-27.371-41.21-27.371-66.355s9.727-48.719,27.371-66.363
			l50.92-50.929c18.054-18.054,42.166-27.38,66.449-27.38c14.556,0,29.18,3.345,42.576,10.187l-26.245,26.236
			c-5.333-1.51-10.836-2.278-16.424-2.278c-16.032,0-31.032,6.169-42.234,17.363l-50.92,50.929
			c-11.203,11.194-17.372,26.202-17.372,42.234c0,16.032,6.169,31.04,17.372,42.234l18.097,18.097
			c11.211,11.194,26.194,17.363,42.234,17.363s31.04-6.169,42.243-17.363l50.929-50.929c15.418-15.426,21.066-37.943,15.119-58.702
			l26.211-26.202C281.605,343.356,275.061,387.723,246.188,416.605z"></path>
      </g>
    </g>
    <g></g>
    <g></g>
    <g></g>
    <g></g>
    <g></g>
    <g></g>
    <g></g>
    <g></g>
    <g></g>
    <g></g>
    <g></g>
    <g></g>
    <g></g>
    <g></g>
    <g></g>
  </symbol>
  <symbol xmlns="http://www.w3.org/2000/svg" viewBox="0 0 240 62" id="parent-pay">
    <path d="M38.212 0a24.434 24.434 0 00-14.428 4.692 4.049 4.049 0 013.473 3.996v.2a4.002 4.002 0 01-1.058 2.737h1.153l16.284-.019a4.055 4.055 0 014.06 4.055v.197a4.021 4.021 0 01-1.059 2.739h.904a4.05 4.05 0 014.053 4.042v.197a4.053 4.053 0 01-3.933 4.042H46.64a4.021 4.021 0 011.077 2.752v.196a4.049 4.049 0 01-3.923 4.053H39.864a4.021 4.021 0 011.071 2.735v.211a4.053 4.053 0 01-3.923 4.053h-.119l-14.068.02h-2.93A24.491 24.491 0 0038.211 49.1h24.55V24.55C62.762 10.99 51.77 0 38.212 0z"></path>
    <path d="M49.477 22.633a1.94 1.94 0 00-1.943-1.937h-3.877l-17.947.021a1.456 1.456 0 01-.047-2.91h.043l17.99-.027a1.94 1.94 0 001.88-1.937v-.182a1.943 1.943 0 00-1.944-1.938l-21.427.034h-8.15a1.456 1.456 0 01-.049-2.91h8.345l.919-.013a1.943 1.943 0 001.88-1.945v-.197a1.943 1.943 0 00-1.944-1.939h-1.904l-6.673.026h-.026C5.695 7.073-.013 12.957 0 21.934v6.11c0 6.24 4.135 10.764 9.812 10.756l8.393-.013h4.61l14.065-.019h.058a1.943 1.943 0 001.881-1.943v-.211a1.945 1.945 0 00-1.905-1.933l-11.187.017a1.456 1.456 0 01-.049-2.91h.045l11.155-.019h.03l6.772-.01h.058a1.945 1.945 0 001.881-1.941v-.188a1.94 1.94 0 00-1.943-1.939l-17.947.028a1.456 1.456 0 01-.046-2.91h.042l17.947-.028H47.611a1.943 1.943 0 001.879-1.943l-.013-.205zM80.241 13.856h6.35c5.46 0 10.452 1.581 10.452 7.579 0 5.856-4.275 7.975-9.663 7.975h-2.117v9.523h-5.022V13.856zm5.029 11.602h1.759c2.516 0 4.778-.825 4.778-3.735s-2.19-3.916-4.778-3.916h-1.76v7.651zM99.822 21.399a16.56 16.56 0 016.421-1.401c5.638 0 7.975 2.328 7.975 7.795v2.37c0 1.869.036 3.27.07 4.635.038 1.4.108 2.694.211 4.131h-4.232c-.18-.971-.18-2.192-.212-2.766h-.072c-1.113 2.047-3.52 3.196-5.714 3.196-3.268 0-6.466-1.975-6.466-5.503 0-2.766 1.33-4.383 3.162-5.28 1.833-.898 4.22-1.063 6.22-1.063h2.656c0-2.98-1.329-3.985-4.167-3.985-2.046 0-4.095.79-5.714 2.01l-.138-4.14zm5.638 14.44a4.087 4.087 0 003.387-1.653c.789-1.041 1.005-2.37 1.005-3.81h-2.083c-2.156 0-5.352.36-5.352 3.199-.009 1.583 1.32 2.264 3.043 2.264zM118.307 20.43h4.273v4.203h.072c.211-1.725 2.192-4.635 5.064-4.635a5.24 5.24 0 011.482.144v4.848c-.423-.25-1.293-.393-2.155-.393-3.915 0-3.915 4.884-3.915 7.543v6.79h-4.821v-18.5zM146.419 37.884c-1.76.971-3.771 1.481-6.35 1.481-6.105 0-9.663-3.52-9.663-9.59 0-5.352 2.838-9.77 8.587-9.77 6.859 0 8.8 4.706 8.8 11.172h-12.796c.211 2.98 2.298 4.669 5.28 4.669 2.328 0 4.345-.862 6.138-1.87l.004 3.908zm-3.232-10.022c-.144-2.328-1.223-4.345-3.917-4.345s-4.057 1.867-4.273 4.345h8.19zM150.92 20.43h4.564v2.514h.072c1.509-2.116 3.557-2.946 6.072-2.946 4.38 0 6.285 3.09 6.285 7.257v11.674h-4.815v-9.88c0-2.262-.036-5.316-3.126-5.316-3.483 0-4.232 3.772-4.232 6.138v9.052h-4.82V20.43zM173.458 23.95h-3.555v-3.52h3.555v-3.7l4.813-1.545v5.245h4.275v3.52h-4.275v8.621c0 1.58.423 3.052 2.262 3.052.864 0 1.693-.18 2.193-.501l.144 3.81c-1.16.307-2.357.45-3.556.422-3.773 0-5.856-2.328-5.856-5.997v-9.408zM185.532 13.856h6.35c5.458 0 10.45 1.581 10.45 7.579 0 5.856-4.273 7.975-9.661 7.975h-2.117v9.523h-5.022V13.856zm5.029 11.602h1.759c2.514 0 4.778-.825 4.778-3.735s-2.192-3.916-4.778-3.916h-1.76v7.651zM205.111 21.399a16.58 16.58 0 016.432-1.401c5.638 0 7.972 2.328 7.972 7.795v2.37c0 1.869.036 3.27.072 4.635.036 1.4.108 2.694.212 4.131h-4.233c-.178-.971-.178-2.192-.212-2.766h-.071c-1.114 2.047-3.522 3.196-5.715 3.196-3.267 0-6.465-1.975-6.465-5.503 0-2.766 1.329-4.383 3.162-5.28 1.832-.898 4.198-1.063 6.222-1.063h2.658c0-2.98-1.33-3.985-4.167-3.985-2.049 0-4.095.79-5.715 2.01l-.152-4.14zm5.64 14.44a4.08 4.08 0 003.387-1.653c.791-1.041 1.007-2.37 1.007-3.81h-2.085c-2.154 0-5.35.36-5.35 3.199-.01 1.583 1.316 2.264 3.041 2.264zM230.559 33.934h.072l4.444-13.504h4.885l-6.934 18.355c-1.545 4.093-2.658 8.117-7.686 8.117a12.313 12.313 0 01-3.412-.502l.324-3.556c.61.212 1.293.322 2.478.322 1.939 0 3.124-1.329 3.124-3.304l-7.075-19.432h5.316l4.464 13.504zM87.655 60.764c-1.03.223-2.079.342-3.132.356-.766.028-1.53-.101-2.244-.381a2.79 2.79 0 01-1.32-1.186 5.477 5.477 0 01-.635-1.845c-.13-.86-.19-1.73-.178-2.599-.012-.875.048-1.749.178-2.614a5.583 5.583 0 01.635-1.873 2.766 2.766 0 011.312-1.185c.7-.272 1.45-.398 2.201-.37 1.068.019 2.131.143 3.175.37l-.051 1.1a17.803 17.803 0 00-3.048-.304c-1.241 0-2.063.37-2.463 1.109-.401.74-.601 2-.601 3.784-.01.719.026 1.438.11 2.152.06.508.202 1.002.423 1.463.192.412.525.743.94.931.41.188 1.015.28 1.811.28.947-.017 1.89-.118 2.82-.303l.067 1.115zM98.643 55.177c0 2.09-.333 3.602-.999 4.537-.666.936-1.876 1.404-3.631 1.406-1.757 0-2.967-.48-3.632-1.44-.665-.959-.998-2.469-.999-4.529 0-2.058.339-3.588 1.016-4.588s1.876-1.5 3.598-1.496c1.727 0 2.932.493 3.615 1.481.682.988 1.027 2.53 1.032 4.629zm-7.923-.034c0 1.717.225 2.95.677 3.701.451.751 1.323 1.126 2.616 1.124 1.29 0 2.16-.367 2.607-1.1.447-.734.67-1.964.669-3.691 0-1.727-.232-2.986-.694-3.776-.463-.79-1.33-1.185-2.6-1.185s-2.133.393-2.59 1.179c-.457.786-.685 2.035-.685 3.748zM102.504 57.429c0 1.693.917 2.54 2.751 2.54.948 0 1.662-.201 2.142-.602.48-.4.72-1.047.72-1.938v-8.193h1.286v8.159c0 1.31-.347 2.26-1.041 2.846-.694.587-1.719.88-3.073.879-1.355 0-2.373-.293-3.056-.879-.683-.585-1.025-1.534-1.025-2.846v-8.159h1.304l-.008 8.193zM112.442 60.952V49.236h2.438l4.485 10.563h.356V49.236h1.286v11.716h-2.385l-4.548-10.567h-.322v10.567zM122.923 50.402v-1.166h8.465v1.166h-3.572v10.55h-1.287v-10.55zM146.066 55.177c0 2.09-.333 3.602-1 4.537-.665.936-1.875 1.404-3.629 1.406-1.757 0-2.968-.48-3.634-1.44-.666-.959-.999-2.469-.999-4.529 0-2.058.339-3.588 1.016-4.588s1.877-1.5 3.598-1.496c1.727 0 2.932.493 3.615 1.481.683.988 1.027 2.53 1.033 4.629zm-7.924-.034c0 1.717.226 2.95.677 3.701.452.751 1.324 1.126 2.618 1.124 1.291 0 2.16-.367 2.605-1.1.446-.734.67-1.964.67-3.691 0-1.727-.232-2.986-.693-3.776-.461-.79-1.328-1.185-2.601-1.185-1.27 0-2.133.393-2.59 1.179-.458.786-.686 2.035-.686 3.748zM148.707 60.952V49.236h2.438l4.487 10.563h.347V49.236h1.287v11.716h-2.38l-4.554-10.565h-.321v10.565zM165.604 57.429c0 1.693.917 2.54 2.752 2.54.948 0 1.662-.201 2.141-.602.48-.4.72-1.047.72-1.938v-8.193h1.27v8.159c0 1.31-.347 2.26-1.041 2.846-.695.587-1.719.88-3.074.879-1.354 0-2.373-.293-3.056-.879-.682-.585-1.024-1.534-1.024-2.846v-8.159h1.304l.008 8.193zM178.777 50.199c-1.693 0-2.54.638-2.54 1.915 0 .71.195 1.198.584 1.463.39.264 1.179.53 2.37.795 1.192.265 2.034.61 2.54 1.033.506.424.745 1.122.745 2.091 0 2.407-1.247 3.607-3.742 3.598a20.893 20.893 0 01-3.098-.288l-.61-.065.136-1.082c1.161.171 2.331.272 3.505.303 1.669 0 2.504-.785 2.505-2.354 0-.63-.183-1.085-.55-1.362-.367-.278-1.052-.513-2.057-.703-1.32-.282-2.257-.646-2.81-1.09-.554-.445-.83-1.192-.83-2.243 0-2.101 1.258-3.152 3.776-3.152.992.014 1.982.099 2.962.254l.576.085-.118 1.1a32.18 32.18 0 00-3.344-.298z"></path>
  </symbol>
  <symbol version="1.1" id="parents-portal-logo" xmlns="http://www.w3.org/2000/svg" xmlns:xlink="http://www.w3.org/1999/xlink" x="0px" y="0px" xml:space="preserve" viewBox="0 0 1139.1 136.2">
    <path d="M66.8,69.2c0,18.2-14.7,32.9-32.8,32.9c-6.8,0-13-2.1-18.2-5.6v39.6H0V35.4h15.8V42c5.2-3.6,11.4-5.6,18.2-5.6
	C52.1,36.4,66.8,51.2,66.8,69.2z M51,69.2c0-9.4-7.6-17-17-17s-17.1,7.6-17.1,17S24.6,86.4,34,86.4S51,78.7,51,69.2z"></path>
    <path d="M142.1,35v66.1h-13.3v-6c-5.4,3.7-12,6-19,6c-18.3,0-33.2-15-33.2-33.2c0-18.3,14.9-33.2,33.2-33.2
	c7,0,13.5,2.3,19,6V35H142.1z M127.1,67.9c0-9.6-7.7-17.3-17.3-17.3c-9.4,0-17.1,7.7-17.1,17.3c0,9.4,7.7,17.1,17.1,17.1
	C119.4,85,127.1,77.3,127.1,67.9z"></path>
    <path d="M211.7,43.7l-10.8,11.7c-3.1-2.9-6.9-4.4-11-4.4c-9,0-16.9,7.6-16.9,17V101h-15.8V34.6H173V40
	c4.9-3.1,10.8-4.9,16.9-4.9C198,35.1,205.7,38.3,211.7,43.7z"></path>
    <path d="M231.7,74.3c2.3,7.7,8.9,12,16.7,12.2c7.3,0.3,13.4-2,17.4-6.2l10.8,9.6c-6.2,8-18.2,12.4-28.6,12.4
	c-18.3,0-33.2-14.9-33.2-33.2c0-18.3,14.9-33.2,33.2-33.2c21,0,35.5,19,31.9,38.5H231.7z M264.1,62.3c-2-6.2-8.8-11.4-16.1-11.4
	c-7.2,0-13.9,5.2-16.1,11.4H264.1z"></path>
    <path d="M356.7,68.4v32.1h-16.2V68.4c0-9.7-7-17.5-15.4-17.5c-8.6,0-16.1,7.8-16.1,17.5v32.1h-16.1V35H309v5.3
	c3.7-3.5,10.2-5.4,16.1-5.4C342.5,34.8,356.7,49.8,356.7,68.4z"></path>
    <path d="M413.5,51.2h-15.8v50.3h-17V51.2h-16.9V35.1h16.9V0.7h17v34.4h15.8V51.2z"></path>
    <path d="M444.2,101.6c-8.8-0.5-19.8-6.5-24.2-11l9.7-12.4c2.4,2.7,13.8,9.3,21.6,7.8c2.1-0.4,4.5-2.3,4.5-5
	c0.1-1.9-1.5-3.6-2.8-4.2c-1.3-0.9-5.4-1.1-8.1-1.2c-3.1-0.1-6.5-0.5-10.2-2c-6.8-3.3-11.6-10.2-11.8-17.5c0-8.6,3.5-13.4,7-16.3
	c7.2-5.6,17.1-6.1,24-4.2c5.4,1.3,11.4,4.2,15,7.7l-8.9,12.5c-1.3-0.9-7.6-3.9-10-4.5c-3.7-1.1-8.4-0.5-10.5,0.8
	c-0.7,0.4-1.6,1.9-1.3,3.7c0,1.3,1.2,3.2,2.1,3.7c1.9,0.9,3.6,1.5,6.1,1.6c3.5,0,9.3,0,13.7,2.1c7.3,4,11.6,10.8,11,18.6
	c-0.4,6.8-5,13.4-11.2,16.6C455.5,101,449.4,102,444.2,101.6z"></path>
    <path d="M550.7,69.2c0,18.2-14.7,32.9-32.8,32.9c-6.8,0-13-2.1-18.2-5.6v39.6h-15.8V35.4h15.8V42
	c5.2-3.6,11.4-5.6,18.2-5.6C536,36.4,550.7,51.2,550.7,69.2z M534.9,69.2c0-9.4-7.6-17-17-17c-9.4,0-17.1,7.6-17.1,17
	s7.7,17.1,17.1,17.1C527.3,86.4,534.9,78.7,534.9,69.2z"></path>
    <path d="M591.7,101.6c-18.3,0-33.2-14.9-33.2-33.2c0-18.3,14.9-33.2,33.2-33.2s33.2,14.9,33.2,33.2
	C624.9,86.8,610.1,101.6,591.7,101.6z M591.7,51.2c-9.6,0-17.3,7.8-17.3,17.3c0,9.6,7.7,17.3,17.3,17.3c9.4,0,17.3-7.7,17.3-17.3
	C609,59,601.2,51.2,591.7,51.2z"></path>
    <path d="M689.9,43.7l-10.8,11.7c-3.1-2.9-6.9-4.4-11-4.4c-9,0-16.9,7.6-16.9,17V101h-15.8V34.6h15.8V40
	c4.9-3.1,10.8-4.9,16.9-4.9C676.2,35.1,683.9,38.3,689.9,43.7z"></path>
    <path d="M740.1,51.2h-15.8v50.3h-17V51.2h-16.9V35.1h16.9V0.7h17v34.4h15.8V51.2z"></path>
    <path d="M814.8,35v66.1h-13.3v-6c-5.4,3.7-12,6-19,6c-18.3,0-33.2-15-33.2-33.2c0-18.3,14.9-33.2,33.2-33.2
	c7,0,13.5,2.3,19,6V35H814.8z M799.8,67.9c0-9.6-7.7-17.3-17.3-17.3c-9.4,0-17.1,7.7-17.1,17.3c0,9.4,7.7,17.1,17.1,17.1
	C792.1,85,799.8,77.3,799.8,67.9z"></path>
    <path d="M845.6,0h-8.5c-2.1,0-3.9,1.7-3.9,3.9v88.9c0,2.1,8.1,15.3,8.1,15.3s8.1-13.1,8.1-15.3V3.9
	C849.5,1.7,847.8,0,845.6,0L845.6,0z M841.2,92.4c-1.6,0-3.1,0-3.3-0.1c-0.4-0.2-0.6-0.6-0.6-0.6V4h8.2v87.8
	c-0.1,0.1-0.4,0.4-0.6,0.5C844.7,92.4,842.9,92.4,841.2,92.4L841.2,92.4z"></path>
    <path d="M864,90.6c0-6,4.9-10.6,10.9-10.8c6-0.1,10.9,4.8,10.9,10.8c0,6.1-4.9,11.2-10.9,11
	C868.9,101.5,864,96.7,864,90.6z"></path>
    <path d="M920.3,101.6c-8.8-0.5-19.8-6.5-24.2-11l9.7-12.4c2.4,2.7,13.8,9.3,21.6,7.8c2.1-0.4,4.5-2.3,4.5-5
	c0.1-1.9-1.5-3.6-2.8-4.2c-1.3-0.9-5.4-1.1-8.1-1.2c-3.1-0.1-6.5-0.5-10.2-2c-6.8-3.3-11.6-10.2-11.8-17.5c0-8.6,3.5-13.4,7-16.3
	c7.2-5.6,17.1-6.1,24-4.2c5.4,1.3,11.4,4.2,15,7.7l-8.9,12.5c-1.3-0.9-7.6-3.9-10-4.5c-3.7-1.1-8.4-0.5-10.5,0.8
	c-0.7,0.4-1.6,1.9-1.3,3.7c0,1.3,1.2,3.2,2.1,3.7c1.9,0.9,3.6,1.5,6.1,1.6c3.5,0,9.3,0,13.7,2.1c7.3,4,11.6,10.8,11,18.6
	c-0.4,6.8-5,13.4-11.2,16.6C931.5,101,925.4,102,920.3,101.6z"></path>
    <path d="M990.4,101c-8.6,0-16.7-3.3-23-9.3c-6.4-6.1-10-14.3-10.1-23.2c-0.1-8.9,3.2-17.3,9.3-23.6
	c6.1-6.2,14.3-10,23.2-10.1c8.9-0.1,17.1,3.2,23.5,9.3l-11,11.4c-3.2-3.1-7.4-4.8-12-4.8h-0.3c-4.6,0-8.9,1.9-12.1,5.2
	c-3.2,3.3-4.9,7.7-4.8,12.4c0,4.6,1.9,8.9,5.2,12.1c3.3,3.2,7.7,4.9,12.4,4.8c4.2,0,8.2-1.7,11.4-4.6l10.8,11.7
	c-6,5.6-13.8,8.8-21.9,8.9H990.4z"></path>
    <path d="M1051.1,101.6c-18.3,0-33.2-14.9-33.2-33.2c0-18.3,14.9-33.2,33.2-33.2c18.3,0,33.2,14.9,33.2,33.2
	C1084.3,86.8,1069.4,101.6,1051.1,101.6z M1051.1,51.2c-9.6,0-17.3,7.8-17.3,17.3c0,9.6,7.7,17.3,17.3,17.3
	c9.4,0,17.3-7.7,17.3-17.3C1068.3,59,1060.5,51.2,1051.1,51.2z"></path>
    <path d="M1139.1,51.2h-15.8v50.3h-17V51.2h-16.9V35.1h16.9V0.7h17v34.4h15.8V51.2z"></path>
  </symbol>
  <symbol version="1.1" id="pay" xmlns="http://www.w3.org/2000/svg" xmlns:xlink="http://www.w3.org/1999/xlink" x="0px" y="0px" xml:space="preserve" viewBox="0 0 480.48 480.48">
    <g>
      <g>
        <g>
          <path d="M477.128,172.606l-53.68-139.568C413.276,6.654,383.641-6.488,357.257,3.684c-0.383,0.148-0.765,0.3-1.145,0.457
				l-268.256,111.2c-25.543,10.478-38.097,39.391-28.312,65.208l7.376,19.688H50c-27.601,0.031-49.969,22.399-50,50v180
				c0.031,27.601,22.399,49.969,50,50h340c27.601-0.031,49.969-22.399,50-50v-180c-0.016-2.714-0.257-5.422-0.72-8.096l9.288-3.76
				C474.339,227.818,487.005,198.648,477.128,172.606z M50,216.238h340c17.956,0.051,32.768,14.074,33.8,32H16.2
				C17.232,230.311,32.044,216.288,50,216.238z M130.408,168.046l53.472-26.744l10.992,27.496L141.4,195.534L130.408,168.046z
				 M424,430.238c-0.022,18.769-15.231,33.978-34,34H50c-18.769-0.022-33.978-15.231-34-34v-102h408V430.238z M424,312.238H16v-48
				h408V312.238z M442.568,223.598l-8.36,3.384c-8.635-16.424-25.652-26.718-44.208-26.744H167.776l40.84-20.424
				c3.724-1.859,5.401-6.263,3.856-10.128l-16.968-42.4c-1.641-4.102-6.296-6.098-10.398-4.458c-0.207,0.083-0.41,0.174-0.609,0.274
				l-67.832,33.936c-3.721,1.862-5.394,6.265-3.848,10.128l13.232,33.072H84l-9.472-25.264c-6.715-17.738,1.91-37.598,19.456-44.8
				l268.248-111.2c17.933-7.436,38.499,1.073,45.936,19.006c0.116,0.279,0.228,0.56,0.336,0.842l53.68,139.568
				C468.975,196.285,460.276,216.333,442.568,223.598z"></path>
          <path d="M287.775,441.742c14.908,8.661,33.317,8.661,48.225,0c22.922,13.317,52.3,5.53,65.617-17.392s5.53-52.3-17.392-65.617
				c-7.357-4.274-15.717-6.516-24.225-6.496c-8.434,0.004-16.716,2.245-24,6.496c-22.922-13.317-52.3-5.531-65.617,17.391
				C257.066,399.047,264.853,428.424,287.775,441.742z M349.376,370.19c3.403-1.254,6.997-1.914,10.624-1.952
				c17.673,0,32,14.327,32,32c0,17.673-14.327,32-32,32c-3.627-0.038-7.221-0.698-10.624-1.952
				C363.54,412.757,363.54,387.718,349.376,370.19z M336,379.294c10.667,11.926,10.667,29.962,0,41.888
				C325.333,409.256,325.333,391.219,336,379.294z M312,368.238c3.627,0.037,7.221,0.698,10.624,1.952
				c-14.164,17.528-14.164,42.568,0,60.096c-3.403,1.254-6.997,1.914-10.624,1.952c-17.673,0-32-14.327-32-32
				C280,382.564,294.327,368.238,312,368.238z"></path>
          <rect x="370.883" y="113.937" transform="matrix(-0.4062 -0.9138 0.9138 -0.4062 390.4948 565.1589)" width="16" height="83.52"></rect>
          <rect x="284.256" y="122.262" transform="matrix(0.908 -0.4191 0.4191 0.908 -22.8353 156.5479)" width="121.408" height="15.992"></rect>
        </g>
      </g>
    </g>
    <g></g>
    <g></g>
    <g></g>
    <g></g>
    <g></g>
    <g></g>
    <g></g>
    <g></g>
    <g></g>
    <g></g>
    <g></g>
    <g></g>
    <g></g>
    <g></g>
    <g></g>
  </symbol>
  <symbol id="payment" enable-background="new 0 0 64 64" xmlns="http://www.w3.org/2000/svg" viewBox="0 0 64 64">
    <path d="m57 2h-50c-2.757 0-5 2.243-5 5v36c0 2.757 2.243 5 5 5h17.656l-2.4 8h-4.256c-.553 0-1 .448-1 1 0 2.757 2.243 5 5 5h20c2.757 0 5-2.243 5-5 0-.552-.447-1-1-1h-4.256l-2.4-8h17.656c2.757 0 5-2.243 5-5v-36c0-2.757-2.243-5-5-5zm-50 2h50c1.654 0 3 1.346 3 3v31h-56v-12h15v1c0 1.654 1.346 3 3 3h19.08c.488 3.387 3.401 6 6.92 6 3.859 0 7-3.14 7-7 0-3.519-2.614-6.432-6-6.92v-9.08c0-1.654-1.346-3-3-3h-17.764l-7.789-3.895c-.224-.111-.481-.137-.722-.067l-6.865 1.962h-8.86v-1c0-1.654 1.346-3 3-3zm34.08 24h-19.08c-.552 0-1-.449-1-1v-1h3.5c1.93 0 3.5-1.57 3.5-3.5 0-.539-.133-1.044-.351-1.5h19.351v1.08c-3.059.441-5.479 2.861-5.92 5.92zm-20.08-11h26v2h-26zm27 7c2.757 0 5 2.243 5 5s-2.243 5-5 5-5-2.243-5-5 2.243-5 5-5zm-1-9h-26v-2c0-.551.448-1 1-1h24c.552 0 1 .449 1 1zm-25-5c-1.654 0-3 1.346-3 3v6h-2v2h3 4.5c.827 0 1.5.673 1.5 1.5s-.673 1.5-1.5 1.5h-20.5v-14h9c.093 0 .186-.013.274-.039l6.626-1.893 3.864 1.932zm20 50h-20c-1.304 0-2.416-.836-2.829-2h25.658c-.413 1.164-1.525 2-2.829 2zm-2.344-4h-15.312l2.4-8h10.512zm17.344-10h-50c-1.654 0-3-1.346-3-3v-3h56v3c0 1.654-1.346 3-3 3z"></path>
    <path d="m47 32c.256 0 .512-.098.707-.293l4-4-1.414-1.414-3.293 3.293-1.293-1.293-1.414 1.414 2 2c.195.195.451.293.707.293z"></path>
    <path d="m29 23h2v2h-2z"></path>
    <path d="m33 23h2v2h-2z"></path>
    <path d="m37 23h2v2h-2z"></path>
  </symbol>
  <symbol xmlns="http://www.w3.org/2000/svg" viewBox="0 0 512 512" id="roads-and-street-lighting">
    <path d="m207.29 389.2-16.1-6.78a5.37 5.37 0 0 0-4.17 9.89l16.1 6.78a5.31 5.31 0 0 0 2.08.43 5.37 5.37 0 0 0 2.09-10.32ZM305.91 430.72l-77.16-32.49a5.37 5.37 0 0 0-4.17 9.9l77.17 32.49a5.26 5.26 0 0 0 2.08.42 5.37 5.37 0 0 0 2.08-10.32ZM195.58 433.81l-16.1-3.39a5.37 5.37 0 1 0-2.22 10.5l16.1 3.39a5.37 5.37 0 0 0 2.22-10.5ZM307 457.26l-90-18.94a5.37 5.37 0 0 0-2.21 10.51l89.93 18.93a6 6 0 0 0 1.11.11 5.36 5.36 0 0 0 1.1-10.61ZM218.91 340l-16.1-10.74a5.37 5.37 0 0 0-6 8.93L213 348.9a5.37 5.37 0 1 0 6-8.93ZM315.5 404.36l-75.13-50.08a5.37 5.37 0 0 0-6 8.93l75.13 50.08a5.37 5.37 0 1 0 6-8.93ZM458.59 371.27h-17.2a5.37 5.37 0 1 0 0 10.73h17.2a5.37 5.37 0 0 0 0-10.73ZM380.46 364.8 364.19 351a5.36 5.36 0 1 0-6.95 8.17L373.51 373a5.36 5.36 0 0 0 6.95-8.17Z"></path>
    <path d="M425.23 355.17a21.47 21.47 0 1 0 21.47 21.46 21.48 21.48 0 0 0-21.47-21.46Zm0 32.2A10.74 10.74 0 1 1 436 376.63a10.75 10.75 0 0 1-10.77 10.74Z"></path>
    <path d="M393 355.17a21.47 21.47 0 1 0 21.47 21.46A21.48 21.48 0 0 0 393 355.17Zm0 32.2a10.74 10.74 0 1 1 10.74-10.74A10.75 10.75 0 0 1 393 387.37ZM441.33 446.4h-27.92a60.14 60.14 0 0 1-23.65-4.46 5.36 5.36 0 0 0-7.46 4.94v21a21.48 21.48 0 0 0 21.46 21.46h21.47a21.48 21.48 0 0 0 21.47-21.46v-16.1a5.37 5.37 0 0 0-5.37-5.38ZM436 467.87a10.74 10.74 0 0 1-10.73 10.73h-21.51A10.74 10.74 0 0 1 393 467.87v-13.43a74.64 74.64 0 0 0 20.38 2.69H436v10.74ZM425.23 419.57H393a5.37 5.37 0 0 0 0 10.73h32.2a5.37 5.37 0 1 0 0-10.73ZM394.07 303.35a5.39 5.39 0 0 0-4.07-1.85h-23.8a16.1 16.1 0 1 0 0 32.2h16a5.42 5.42 0 0 0 3.75-1.52l5.51-5.37a5.35 5.35 0 0 0 1.57-3.08l2.3-16.1a5.38 5.38 0 0 0-1.26-4.28Zm-11.41 17L380 323h-13.8a5.37 5.37 0 1 1 0-10.74h17.63ZM489.63 221h-69.72a26.87 26.87 0 0 0-26.83 26.83 5.36 5.36 0 0 0 5.37 5.37h91.18a5.37 5.37 0 0 0 5.37-5.37v-21.46a5.37 5.37 0 0 0-5.37-5.37Zm-5.37 21.47h-79.52a16.12 16.12 0 0 1 15.17-10.74h64.35Z"></path>
    <path d="M489.63 242.47h-91.18a5.37 5.37 0 0 0-5.32 4.6L382.4 322.2a5.37 5.37 0 0 0 5.31 6.13h101.92A5.37 5.37 0 0 0 495 323v-75.17a5.37 5.37 0 0 0-5.37-5.36Zm-5.37 75.13H393.9l9.2-64.4h81.16v64.4Z"></path>
    <path d="M489.63 317.6H387.71a5.39 5.39 0 0 0-3.74 1.52l-21.73 21.14a6.2 6.2 0 0 0-.89 1.15 82.18 82.18 0 0 0-8.78 61.66l3.7 14.82c6.14 24.57 27.5 39.24 57.14 39.24h76.22a5.37 5.37 0 0 0 5.37-5.36V323a5.37 5.37 0 0 0-5.37-5.4Zm-5.37 128.8h-70.85c-24.39 0-41.86-11.63-46.73-31.12L363 400.46a71.43 71.43 0 0 1 7.29-53l19.62-19.11h94.37V446.4Z"></path>
    <path d="M489.63 355.17h-10.77a25.31 25.31 0 0 0-25.25 27.18l2.51 29.81a25.4 25.4 0 0 0 25.25 23.51h8.26a5.38 5.38 0 0 0 5.37-5.37v-69.77a5.37 5.37 0 0 0-5.37-5.36Zm-5.37 69.76h-2.89a14.65 14.65 0 0 1-14.55-13.61l-2.51-29.8a14.59 14.59 0 0 1 14.54-15.62h5.41ZM489.63 478.6H253.5a5.37 5.37 0 1 0 0 10.73h236.13a5.37 5.37 0 1 0 0-10.73ZM29.08 490.33c-3.35-1.91-6.06-4.31-5.36-8.65.85-5.34 5.11-6.28 9.9-6.89V288.74c0-10.41 3.61-18.29 13-23.38 1.22-.66 2-3.18 2-4.84.14-18.49 0-37 .1-55.45.1-25.81-.47-51.66.64-77.42C50.77 94.23 65.7 67 91.51 46c21.17-17.23 45.8-25 73-25 30.41 0 60.81-.1 91.21 0 25.19.12 42.79 20.7 38.48 44.8-2.67 15-15.32 30.41-37 30.76-22.6.36-45.24.52-67.8-.46-16.56-.65-27.4-10.5-32.86-26.1-.35-1-.73-2-1.21-3.21-22.4 3-39.6 13.73-51.41 32.85a65.18 65.18 0 0 0-9.73 34.82c0 42.16 0 84.32-.09 126.48 0 2.64.85 3.9 3.2 5.17 7 3.8 11.13 9.81 11.76 17.93.19 2.43.23 4.88.24 7.32V474.7c4.44.93 8.71 1.44 9.73 6.61.85 4.34-1.73 6.77-4.7 9.06Zm249.06-439c-3.36-9.83-11.15-15-22.62-15q-46.07-.12-92.14 0c-11.06 0-21.95 1.39-32.4 5.13C89.35 56.25 64 92.26 63.9 136.53q-.07 60.94 0 121.9c0 1.48.13 2.95.2 4.47H79v-7c.12-42.16-.4-84.33.56-126.47.84-37 29.8-70 66.33-76.12 13.88-2.31 28.29-1.45 42.46-2a23.42 23.42 0 0 1 5.92.37A6.83 6.83 0 0 1 200 59c-.09 3.71-2 6.41-5.9 7.06a43.27 43.27 0 0 1-6.84.44c-5.09.06-10.18 0-15.49 0 2.79 8.61 10.43 14.79 19.15 14.89q33.91.38 67.83 0a20.52 20.52 0 0 0 19.2-14.9h-51.29a27.62 27.62 0 0 1-5.45-.48c-3.65-.73-5.52-3.35-5.7-6.82a6.82 6.82 0 0 1 5.11-7.29 18.79 18.79 0 0 1 5.42-.58c17.17-.04 34.43-.03 52.1-.03Zm-184 257.45v-5c0-6.1.17-12.22-.17-18.31-.25-4.44-3.29-6.89-8.12-6.94q-14.43-.16-28.86 0c-5 .07-7.57 2.49-8.18 7.42a35.14 35.14 0 0 0-.13 4.11v184.78h45.23v-85.37c-6.93 0-13.61.06-20.29 0-7-.07-9.71-2.78-9.72-9.76v-61.38c0-7 2.64-9.53 9.79-9.57 6.56-.05 13.12-.02 20.47-.02Zm-14.9 65.43h14.57V324H79.26Z"></path>
  </symbol>
  <symbol version="1.1" id="random" xmlns="http://www.w3.org/2000/svg" xmlns:xlink="http://www.w3.org/1999/xlink" x="0px" y="0px" xml:space="preserve" viewBox="0 0 477.88 477.88">
    <g>
      <g>
        <path d="M472.897,124.269c-0.01-0.01-0.02-0.02-0.03-0.031l-0.017,0.017l-68.267-68.267c-6.78-6.548-17.584-6.36-24.132,0.42
			c-6.388,6.614-6.388,17.099,0,23.713l39.151,39.151h-95.334c-65.948,0.075-119.391,53.518-119.467,119.467
			c-0.056,47.105-38.228,85.277-85.333,85.333h-102.4C7.641,324.072,0,331.713,0,341.139s7.641,17.067,17.067,17.067h102.4
			c65.948-0.075,119.391-53.518,119.467-119.467c0.056-47.105,38.228-85.277,85.333-85.333h95.334l-39.134,39.134
			c-6.78,6.548-6.968,17.353-0.419,24.132c6.548,6.78,17.353,6.968,24.132,0.419c0.142-0.137,0.282-0.277,0.419-0.419l68.267-68.267
			C479.54,141.748,479.553,130.942,472.897,124.269z"></path>
      </g>
    </g>
    <g>
      <g>
        <path d="M472.897,329.069c-0.01-0.01-0.02-0.02-0.03-0.03l-0.017,0.017l-68.267-68.267c-6.78-6.548-17.584-6.36-24.132,0.42
			c-6.388,6.614-6.388,17.099,0,23.712l39.151,39.151h-95.334c-20.996,0.015-41.258-7.721-56.9-21.726
			c-7.081-6.222-17.864-5.525-24.086,1.555c-6.14,6.988-5.553,17.605,1.319,23.874c21.898,19.614,50.269,30.451,79.667,30.43h95.334
			l-39.134,39.134c-6.78,6.548-6.968,17.352-0.42,24.132c6.548,6.78,17.352,6.968,24.132,0.42c0.142-0.138,0.282-0.277,0.42-0.42
			l68.267-68.267C479.54,346.548,479.553,335.742,472.897,329.069z"></path>
      </g>
    </g>
    <g>
      <g>
        <path d="M199.134,149.702c-21.898-19.614-50.269-30.451-79.667-30.43h-102.4C7.641,119.272,0,126.913,0,136.339
			c0,9.426,7.641,17.067,17.067,17.067h102.4c20.996-0.015,41.258,7.721,56.9,21.726c7.081,6.222,17.864,5.525,24.086-1.555
			C206.593,166.588,206.006,155.971,199.134,149.702z"></path>
      </g>
    </g>
    <g></g>
    <g></g>
    <g></g>
    <g></g>
    <g></g>
    <g></g>
    <g></g>
    <g></g>
    <g></g>
    <g></g>
    <g></g>
    <g></g>
    <g></g>
    <g></g>
    <g></g>
  </symbol>
  <symbol id="tax" enable-background="new 0 0 64 64" xmlns="http://www.w3.org/2000/svg" viewBox="0 0 64 64">
    <path d="m50 7h-7.214c-1.825-3.556-5.522-6-9.786-6s-7.961 2.444-9.786 6h-7.214c-3.859 0-7 3.141-7 7v44c0 2.757 2.243 5 5 5h38c2.757 0 5-2.243 5-5v-44c0-3.859-3.141-7-7-7zm-1 6c1.103 0 2 .897 2 2v10h-36v-10c0-1.103.897-2 2-2h5.051c.507 5.598 5.221 10 10.949 10s10.442-4.402 10.949-10zm-16-10c4.963 0 9 4.037 9 9s-4.037 9-9 9-9-4.037-9-9 4.037-9 9-9zm22 55c0 1.654-1.346 3-3 3h-38c-1.654 0-3-1.346-3-3v-44c0-2.757 2.243-5 5-5h6.426c-.183.645-.313 1.312-.376 2h-5.05c-2.206 0-4 1.794-4 4v10c0 1.103.897 2 2 2h36c1.103 0 2-.897 2-2v-10c0-2.206-1.794-4-4-4h-5.051c-.062-.688-.192-1.355-.376-2h6.427c2.757 0 5 2.243 5 5z"></path>
    <path d="m51 29h-36c-1.103 0-2 .897-2 2v26c0 1.103.897 2 2 2h36c1.103 0 2-.897 2-2v-26c0-1.103-.897-2-2-2zm-36 28v-26h36l.002 26z"></path>
    <path d="m20 49c-1.654 0-3 1.346-3 3s1.346 3 3 3 3-1.346 3-3-1.346-3-3-3zm0 4c-.552 0-1-.448-1-1s.448-1 1-1 1 .448 1 1-.448 1-1 1z"></path>
    <path d="m28 49c-1.654 0-3 1.346-3 3s1.346 3 3 3 3-1.346 3-3-1.346-3-3-3zm0 4c-.552 0-1-.448-1-1s.448-1 1-1 1 .448 1 1-.448 1-1 1z"></path>
    <path d="m36 49c-1.654 0-3 1.346-3 3s1.346 3 3 3 3-1.346 3-3-1.346-3-3-3zm0 4c-.552 0-1-.448-1-1s.448-1 1-1 1 .448 1 1-.448 1-1 1z"></path>
    <path d="m20 41c-1.654 0-3 1.346-3 3s1.346 3 3 3 3-1.346 3-3-1.346-3-3-3zm0 4c-.552 0-1-.448-1-1s.448-1 1-1 1 .448 1 1-.448 1-1 1z"></path>
    <path d="m28 41c-1.654 0-3 1.346-3 3s1.346 3 3 3 3-1.346 3-3-1.346-3-3-3zm0 4c-.552 0-1-.448-1-1s.448-1 1-1 1 .448 1 1-.448 1-1 1z"></path>
    <path d="m36 41c-1.654 0-3 1.346-3 3s1.346 3 3 3 3-1.346 3-3-1.346-3-3-3zm0 4c-.552 0-1-.448-1-1s.448-1 1-1 1 .448 1 1-.448 1-1 1z"></path>
    <path d="m20 33c-1.654 0-3 1.346-3 3s1.346 3 3 3 3-1.346 3-3-1.346-3-3-3zm0 4c-.552 0-1-.448-1-1s.448-1 1-1 1 .448 1 1-.448 1-1 1z"></path>
    <path d="m28 33c-1.654 0-3 1.346-3 3s1.346 3 3 3 3-1.346 3-3-1.346-3-3-3zm0 4c-.552 0-1-.448-1-1s.448-1 1-1 1 .448 1 1-.448 1-1 1z"></path>
    <path d="m36 33c-1.654 0-3 1.346-3 3s1.346 3 3 3 3-1.346 3-3-1.346-3-3-3zm0 4c-.552 0-1-.448-1-1s.448-1 1-1 1 .448 1 1-.448 1-1 1z"></path>
    <path d="m46 33h-2c-1.654 0-3 1.346-3 3s1.346 3 3 3h2c1.654 0 3-1.346 3-3s-1.346-3-3-3zm0 4h-2c-.552 0-1-.448-1-1s.448-1 1-1h2c.552 0 1 .448 1 1s-.448 1-1 1z"></path>
    <path d="m46 41h-2c-1.654 0-3 1.346-3 3v8c0 1.654 1.346 3 3 3h2c1.654 0 3-1.346 3-3v-8c0-1.654-1.346-3-3-3zm1 11c0 .552-.448 1-1 1h-2c-.552 0-1-.448-1-1v-8c0-.552.448-1 1-1h2c.552 0 1 .448 1 1z"></path>
    <path d="m25.929 11h14.142v2h-14.142z" transform="matrix(.707 -.707 .707 .707 1.18 26.849)"></path>
    <path d="m36 12c-1.654 0-3 1.346-3 3s1.346 3 3 3 3-1.346 3-3-1.346-3-3-3zm0 4c-.552 0-1-.448-1-1s.448-1 1-1 1 .448 1 1-.448 1-1 1z"></path>
    <path d="m30 12c1.654 0 3-1.346 3-3s-1.346-3-3-3-3 1.346-3 3 1.346 3 3 3zm0-4c.552 0 1 .448 1 1s-.448 1-1 1-1-.448-1-1 .448-1 1-1z"></path>
  </symbol>
  <symbol xmlns="http://www.w3.org/2000/svg" viewBox="0 0 64 64" id="taxi">
    <g id="Taxi-Car-Cab-Vehicle-Transport">
      <path d="m12 35a4 4 0 1 0 4 4 4 4 0 0 0 -4-4zm0 6a2 2 0 1 1 2-2 2 2 0 0 1 -2 2z"></path>
      <path d="m52 35a4 4 0 1 0 4 4 4 4 0 0 0 -4-4zm0 6a2 2 0 1 1 2-2 2 2 0 0 1 -2 2z"></path>
      <path d="m23 40h18v2h-18z"></path>
      <path d="m23 36h18v2h-18z"></path>
      <path d="m29 21h6v2h-6z"></path>
      <path d="m62 30v-2a3.009 3.009 0 0 0 -3-3h-3.96l-2.07-7.26-.62-2.47a3 3 0 0 0 -2.91-2.27h-8.44v-4a2.006 2.006 0 0 0 -2-2h-14a2.006 2.006 0 0 0 -2 2v4h-8.44a3 3 0 0 0 -2.91 2.27l-.61 2.46-2.08 7.27h-3.96a3.009 3.009 0 0 0 -3 3v2a2.992 2.992 0 0 0 1.41 2.53 4.976 4.976 0 0 0 -1.41 3.47v12a2.986 2.986 0 0 0 1 2.22v3.78a3.009 3.009 0 0 0 3 3h8a3.009 3.009 0 0 0 3-3v-3h30v3a3.009 3.009 0 0 0 3 3h8a3.009 3.009 0 0 0 3-3v-3.78a2.986 2.986 0 0 0 1-2.22v-12a4.976 4.976 0 0 0 -1.41-3.47 2.992 2.992 0 0 0 1.41-2.53zm-37-21h14v4h-14zm-11.41 6.76a1 1 0 0 1 .97-.76h34.88a1 1 0 0 1 .97.76l.31 1.24h-37.44zm-.84 3.24h38.5l3.42 12h-28.76a5.993 5.993 0 0 0 -11.82 0h-4.76zm11.11 12h-7.72a3.983 3.983 0 0 1 7.72 0zm-19.86-3a1 1 0 0 1 1-1h3.39l-1.14 4h-2.25a1 1 0 0 1 -1-1zm11 26a1 1 0 0 1 -1 1h-8a1 1 0 0 1 -1-1v-3h10zm44 0a1 1 0 0 1 -1 1h-8a1 1 0 0 1 -1-1v-3h10zm1-6a1 1 0 0 1 -1 1h-54a1 1 0 0 1 -1-1v-1h56zm0-3h-56v-9a3.009 3.009 0 0 1 3-3h50a3.009 3.009 0 0 1 3 3zm0-15a1 1 0 0 1 -1 1h-2.25l-1.14-4h3.39a1 1 0 0 1 1 1z"></path>
    </g>
  </symbol>
  <symbol version="1.1" id="trash" xmlns="http://www.w3.org/2000/svg" xmlns:xlink="http://www.w3.org/1999/xlink" x="0px" y="0px" xml:space="preserve" viewBox="0 0 512 512">
    <g>
      <g>
        <path d="M426.667,119.467H85.333c-4.71,0-8.533,3.823-8.533,8.533v348.092C76.8,495.889,92.902,512,112.708,512h286.575
			c19.806,0,35.917-16.111,35.917-35.908V128C435.2,123.29,431.377,119.467,426.667,119.467z M418.125,476.092
			c0,10.385-8.448,18.842-18.842,18.842H112.708c-10.385,0-18.842-8.457-18.842-18.842V136.533h324.258V476.092z"></path>
      </g>
    </g>
    <g>
      <g>
        <path d="M404.267,51.2H107.733c-26.47,0-48,21.53-48,48V128c0,4.71,3.823,8.533,8.533,8.533h375.467
			c4.71,0,8.533-3.823,8.533-8.533V99.2C452.267,72.73,430.737,51.2,404.267,51.2z M435.2,119.467H76.8V99.2
			c0-17.058,13.875-30.933,30.933-30.933h296.533c17.058,0,30.933,13.875,30.933,30.933V119.467z"></path>
      </g>
    </g>
    <g>
      <g>
        <path d="M316.083,0H195.908c-18.62,0-33.775,15.155-33.775,33.775v25.958c0,4.71,3.823,8.533,8.533,8.533h170.667
			c4.71,0,8.533-3.823,8.525-8.533V33.775C349.858,15.155,334.711,0,316.083,0z M332.8,51.2H179.2V33.775
			c0-9.216,7.492-16.708,16.708-16.708h120.175c9.225,0,16.717,7.492,16.717,16.708V51.2z"></path>
      </g>
    </g>
    <g>
      <g>
        <path d="M153.6,170.667c-18.825,0-34.133,15.309-34.133,34.133v221.867c0,18.825,15.309,34.133,34.133,34.133
			s34.133-15.309,34.133-34.133V204.8C187.733,185.975,172.425,170.667,153.6,170.667z M170.667,426.667
			c0,9.412-7.654,17.067-17.067,17.067s-17.067-7.654-17.067-17.067V204.8c0-9.412,7.654-17.067,17.067-17.067
			s17.067,7.654,17.067,17.067V426.667z"></path>
      </g>
    </g>
    <g>
      <g>
        <path d="M358.4,170.667c-18.825,0-34.133,15.309-34.133,34.133v221.867c0,18.825,15.309,34.133,34.133,34.133
			c18.824,0,34.133-15.309,34.133-34.133V204.8C392.533,185.975,377.225,170.667,358.4,170.667z M375.467,426.667
			c0,9.412-7.654,17.067-17.067,17.067c-9.412,0-17.067-7.654-17.067-17.067V204.8c0-9.412,7.654-17.067,17.067-17.067
			c9.412,0,17.067,7.654,17.067,17.067V426.667z"></path>
      </g>
    </g>
    <g>
      <g>
        <path d="M256,170.667c-18.825,0-34.133,15.309-34.133,34.133v221.867c0,18.825,15.309,34.133,34.133,34.133
			s34.133-15.309,34.133-34.133V204.8C290.133,185.975,274.825,170.667,256,170.667z M273.067,426.667
			c0,9.412-7.654,17.067-17.067,17.067c-9.412,0-17.067-7.654-17.067-17.067V204.8c0-9.412,7.654-17.067,17.067-17.067
			c9.412,0,17.067,7.654,17.067,17.067V426.667z"></path>
      </g>
    </g>
    <g></g>
    <g></g>
    <g></g>
    <g></g>
    <g></g>
    <g></g>
    <g></g>
    <g></g>
    <g></g>
    <g></g>
    <g></g>
    <g></g>
    <g></g>
    <g></g>
    <g></g>
  </symbol>
  <symbol version="1.1" id="website" xmlns="http://www.w3.org/2000/svg" xmlns:xlink="http://www.w3.org/1999/xlink" x="0px" y="0px" xml:space="preserve" viewBox="0 0 512 512">
    <g>
      <g>
        <path d="M477.858,8.533H34.142C15.317,8.533,0,23.851,0,42.675v281.591c0,4.71,3.823,8.533,8.533,8.533h494.933
			c4.71,0,8.533-3.823,8.533-8.533V42.675C512,23.851,496.683,8.533,477.858,8.533z M494.933,315.733H17.067V42.675
			c0-9.421,7.663-17.075,17.075-17.075h443.716c9.412,0,17.075,7.654,17.075,17.075V315.733z"></path>
      </g>
    </g>
    <g>
      <g>
        <path d="M503.467,315.733H8.533c-4.71,0-8.533,3.823-8.533,8.533v42.658c0,18.825,15.317,34.142,34.142,34.142h443.716
			c18.825,0,34.142-15.317,34.142-34.142v-42.658C512,319.556,508.177,315.733,503.467,315.733z M494.933,366.925
			c0,9.421-7.663,17.075-17.075,17.075H34.142c-9.412,0-17.075-7.654-17.075-17.075V332.8h477.867V366.925z"></path>
      </g>
    </g>
    <g>
      <g>
        <path d="M281.6,349.867h-51.2c-4.71,0-8.533,3.823-8.533,8.533s3.823,8.533,8.533,8.533h51.2c4.71,0,8.533-3.823,8.533-8.533
			S286.31,349.867,281.6,349.867z"></path>
      </g>
    </g>
    <g>
      <g>
        <path d="M469.333,42.667H42.667c-4.71,0-8.533,3.823-8.533,8.533v273.067c0,4.71,3.823,8.533,8.533,8.533h426.667
			c4.71,0,8.533-3.823,8.533-8.533V51.2C477.867,46.49,474.044,42.667,469.333,42.667z M460.8,315.733H51.2v-256h409.6V315.733z"></path>
      </g>
    </g>
    <g>
      <g>
        <path d="M366.933,452.267H145.067c-14.114,0-25.6,11.486-25.6,25.6s11.486,25.6,25.6,25.6h221.867c14.114,0,25.6-11.486,25.6-25.6
			S381.047,452.267,366.933,452.267z M366.933,486.4H145.067c-4.71,0-8.533-3.831-8.533-8.533s3.823-8.533,8.533-8.533h221.867
			c4.71,0,8.533,3.831,8.533,8.533S371.644,486.4,366.933,486.4z"></path>
      </g>
    </g>
    <g>
      <g>
        <path d="M349.867,452.267c-28.314,0-42.667-20.096-42.667-59.733c0-4.71-3.823-8.533-8.533-8.533h-85.333
			c-4.71,0-8.533,3.823-8.533,8.533c0,39.637-14.353,59.733-42.667,59.733c-4.71,0-8.533,3.823-8.533,8.533
			c0,4.71,3.823,8.533,8.533,8.533h187.733c4.71,0,8.533-3.823,8.533-8.533C358.4,456.09,354.577,452.267,349.867,452.267z
			 M203.699,452.267c10.505-11.639,16.691-28.971,17.937-51.2h68.736c1.237,22.229,7.424,39.561,17.937,51.2H203.699z"></path>
      </g>
    </g>
    <g>
      <g>
        <path d="M407.757,259.959l-20.599-20.599l11.46-11.46c2.125-2.125,2.978-5.214,2.244-8.124c-0.734-2.91-2.944-5.214-5.82-6.084
			l-85.333-25.6c-3.012-0.905-6.263-0.077-8.482,2.142c-2.227,2.219-3.046,5.478-2.142,8.482l25.6,85.333
			c0.862,2.884,3.174,5.094,6.084,5.828c2.901,0.717,5.999-0.12,8.124-2.244l12.066-12.075l20.599,20.608
			c1.596,1.604,3.772,2.5,6.033,2.5s4.437-0.896,6.033-2.5l24.132-24.141C411.093,268.689,411.093,263.296,407.757,259.959z
			 M377.591,278.067l-18.756-18.765c-2.176-2.176-5.026-3.26-7.876-3.26c-2.859,0-5.709,1.092-7.876,3.251l-6.161,6.161
			l-16.939-56.465l56.465,16.939l-6.605,6.605c-1.818,1.826-2.816,4.25-2.816,6.827c0,2.586,1.007,5.026,2.833,6.835l19.797,19.797
			L377.591,278.067z"></path>
      </g>
    </g>
    <g>
      <g>
        <path d="M358.4,76.8H119.467c-4.71,0-8.533,3.823-8.533,8.533V128c0,4.71,3.823,8.533,8.533,8.533H358.4
			c4.71,0,8.533-3.823,8.533-8.533V85.333C366.933,80.623,363.11,76.8,358.4,76.8z M349.867,119.467H128v-25.6h221.867V119.467z"></path>
      </g>
    </g>
    <g>
      <g>
        <path d="M221.867,170.667H153.6c-4.71,0-8.533,3.823-8.533,8.533v34.133c0,4.71,3.823,8.533,8.533,8.533h68.267
			c4.71,0,8.533-3.823,8.533-8.533V179.2C230.4,174.49,226.577,170.667,221.867,170.667z M213.333,204.8h-51.2v-17.067h51.2V204.8z"></path>
      </g>
    </g>
    <g>
      <g>
        <path d="M358.4,76.8H119.467c-4.71,0-8.533,3.823-8.533,8.533v162.133c0,4.71,3.823,8.533,8.533,8.533h203.145
			c2.705,0,5.239-1.271,6.844-3.439c1.613-2.167,2.108-4.966,1.331-7.552l-10.803-36.019l35.968,10.795
			c2.586,0.777,5.385,0.282,7.543-1.331c2.167-1.604,3.439-4.147,3.439-6.844V85.333C366.933,80.623,363.11,76.8,358.4,76.8z
			 M349.867,200.141L309.7,188.092c-3.012-0.905-6.263-0.077-8.482,2.142c-2.227,2.227-3.046,5.478-2.142,8.491l12.066,40.209H128
			V93.867h221.867V200.141z"></path>
      </g>
    </g>
    <g></g>
    <g></g>
    <g></g>
    <g></g>
    <g></g>
    <g></g>
    <g></g>
    <g></g>
    <g></g>
    <g></g>
    <g></g>
    <g></g>
    <g></g>
    <g></g>
    <g></g>
  </symbol>
</svg>