<svg height="512pt" viewBox="0 0 512 512" width="512pt" xmlns="http://www.w3.org/2000/svg"><path d="m196.265625 452.265625c.039063 11.320313 7.523437 21.265625 18.386719 24.4375 3.855468 19.972656 21.015625 34.625 41.347656 35.296875 20.332031-.671875 37.492188-15.320312 41.347656-35.292969 10.863282-3.175781 18.347656-13.121093 18.386719-24.441406v-81.066406l27.289063-20.46875c4.296874-3.230469 6.832031-8.289063 6.84375-13.664063v-16.148437c48.355468-32.796875 77.164062-87.558594 76.800781-145.984375 1.054687-95.386719-75.285157-173.632813-170.667969-174.933594-95.382812 1.300781-171.722656 79.546875-170.667969 174.933594-.363281 58.425781 28.445313 113.1875 76.800781 145.984375v16.148437c.011719 5.371094 2.539063 10.425782 6.835938 13.652344l27.296875 20.480469zm102.402344-25.597656h-85.335938v-17.066407h85.335938zm0-34.132813h-85.335938v-17.070312h85.335938zm-42.667969 102.398438c-10.507812-.414063-19.707031-7.167969-23.25-17.066406h46.5c-3.542969 9.898437-12.742188 16.652343-23.25 17.066406zm34.132812-34.132813h-68.265624c-4.710938-.003906-8.53125-3.824219-8.535157-8.535156v-8.53125h85.335938v8.53125c-.003907 4.710937-3.824219 8.53125-8.535157 8.535156zm-187.734374-285.867187c-1.0625-85.964844 67.640624-156.574219 153.601562-157.867188 85.960938 1.292969 154.664062 71.902344 153.601562 157.867188.355469 53.019531-25.886718 102.6875-69.890624 132.265625h-55.464844l22.660156-83.085938c1.238281-4.546875-1.441406-9.242187-5.988281-10.480469-4.550781-1.242187-9.242188 1.441407-10.480469 5.988282l-23.890625 87.578125h-21.09375l-23.886719-87.578125c-1.242187-4.546875-5.933594-7.230469-10.480468-5.988282-4.546876 1.238282-7.230469 5.933594-5.988282 10.480469l22.664063 83.085938h-55.46875c-44.003907-29.578125-70.25-79.246094-69.894531-132.265625zm76.800781 149.332031h59.699219l.027343.003906.03125-.003906h34.085938l.03125.003906.027343-.003906h59.699219v12.800781l-28.441406 21.332032h-96.71875l-28.441406-21.332032zm0 0"/><path d="m247.464844 230.398438h17.070312c4.710938 0 8.53125-3.820313 8.53125-8.53125 0-4.714844-3.820312-8.535157-8.53125-8.535157h-17.070312c-4.710938 0-8.53125 3.820313-8.53125 8.535157 0 4.710937 3.820312 8.53125 8.53125 8.53125zm0 0"/><path d="m4.300781 118.34375 59.734375 34.132812c4.082032 2.277344 9.242188.839844 11.5625-3.222656 2.320313-4.058594.9375-9.230468-3.097656-11.597656l-59.734375-34.132812c-4.085937-2.277344-9.242187-.839844-11.5625 3.222656-2.320313 4.058594-.9375 9.230468 3.097656 11.597656zm0 0"/><path d="m8.542969 256c1.480469 0 2.9375-.386719 4.222656-1.125l59.734375-34.132812c4.035156-2.363282 5.417969-7.535157 3.097656-11.597657-2.320312-4.0625-7.480468-5.496093-11.5625-3.21875l-59.734375 34.132813c-3.359375 1.921875-5.007812 5.863281-4.011719 9.601562.992188 3.742188 4.382813 6.34375 8.253907 6.339844zm0 0"/><path d="m8.535156 187.734375h51.199219c4.710937 0 8.53125-3.820313 8.53125-8.535156 0-4.710938-3.820313-8.53125-8.53125-8.53125h-51.199219c-4.714844 0-8.535156 3.820312-8.535156 8.53125 0 4.714843 3.820312 8.535156 8.535156 8.535156zm0 0"/><path d="m443.742188 153.601562c1.480468 0 2.9375-.390624 4.222656-1.125l59.734375-34.132812c4.035156-2.367188 5.417969-7.539062 3.097656-11.597656-2.320313-4.0625-7.476563-5.5-11.5625-3.222656l-59.734375 34.132812c-3.359375 1.921875-5.007812 5.863281-4.011719 9.605469.996094 3.738281 4.382813 6.339843 8.253907 6.339843zm0 0"/><path d="m439.5 220.742188 59.734375 34.132812c4.085937 2.277344 9.242187.839844 11.5625-3.21875 2.320313-4.0625.9375-9.234375-3.097656-11.597656l-59.734375-34.132813c-2.648438-1.550781-5.925782-1.5625-8.582032-.023437-2.660156 1.539062-4.285156 4.382812-4.261718 7.453125.023437 3.070312 1.695312 5.890625 4.378906 7.386719zm0 0"/><path d="m503.464844 170.667969h-51.199219c-4.710937 0-8.53125 3.820312-8.53125 8.53125 0 4.714843 3.820313 8.535156 8.53125 8.535156h51.199219c4.714844 0 8.535156-3.820313 8.535156-8.535156 0-4.710938-3.820312-8.53125-8.535156-8.53125zm0 0"/></svg>