<?xml version="1.0" encoding="iso-8859-1"?>
<!-- Generator: Adobe Illustrator 19.0.0, SVG Export Plug-In . SVG Version: 6.00 Build 0)  -->
<svg version="1.1" id="Capa_1" xmlns="http://www.w3.org/2000/svg" xmlns:xlink="http://www.w3.org/1999/xlink" x="0px" y="0px"
	 viewBox="0 0 511.998 511.998" style="enable-background:new 0 0 511.998 511.998;" xml:space="preserve">
<g>
	<g>
		<path d="M364.376,147.576c-16.262-16.262-42.729-16.262-58.992,0L147.539,305.422c-7.875,7.875-12.218,18.353-12.218,29.496
			c0,11.143,4.343,21.621,12.218,29.496c8.131,8.131,18.813,12.201,29.496,12.201c10.691,0,21.373-4.07,29.496-12.201
			l157.846-157.846c7.884-7.875,12.218-18.353,12.218-29.496C376.594,165.929,372.26,155.451,364.376,147.576z M352.311,194.503
			L194.466,352.349c-9.616,9.616-25.255,9.616-34.863,0c-4.65-4.659-7.218-10.844-7.218-17.431s2.568-12.773,7.218-17.431
			l157.846-157.846c4.812-4.812,11.117-7.21,17.431-7.21c6.322,0,12.628,2.406,17.431,7.21c4.659,4.659,7.218,10.844,7.218,17.431
			S356.97,189.845,352.311,194.503z"/>
	</g>
</g>
<g>
	<g>
		<path d="M479.561,50.497L461.455,32.4c-20.87-20.87-48.727-32.363-78.428-32.363c-29.709,0-57.558,11.493-78.428,32.363
			l-50.929,50.929c-37.107,37.098-43.011,95.834-14.044,139.664l5.759,8.711l49.111-49.12l-2.014-5.188
			c-1.945-5.008-2.935-10.264-2.935-15.64c0-11.476,4.394-22.184,12.372-30.17l50.92-50.929c7.986-7.969,18.703-12.363,30.17-12.363
			c11.476,0,22.192,4.386,30.17,12.363l18.114,18.105c16.638,16.629,16.638,43.693,0,60.331l-50.92,50.929
			c-11.706,11.689-30.033,15.546-45.818,9.428l-5.179-2.005l-49.111,49.12l8.711,5.759c18.617,12.303,39.922,18.319,61.125,18.319
			c28.694,0,57.2-11.024,78.53-32.354l50.929-50.929C522.81,164.111,522.81,93.738,479.561,50.497z M467.505,195.28l-50.929,50.929
			c-28.873,28.881-73.249,35.443-109.033,17.201l26.245-26.262c5.35,1.519,10.853,2.287,16.424,2.287
			c16.032,0,31.032-6.169,42.234-17.363l50.929-50.929c23.284-23.284,23.284-61.176,0-84.46L425.27,68.576
			c-11.211-11.194-26.202-17.363-42.234-17.363c-16.032,0-31.032,6.169-42.234,17.363l-50.92,50.929
			c-11.203,11.194-17.372,26.202-17.372,42.234c0,5.589,0.768,11.092,2.278,16.433l-26.245,26.237
			c-18.216-35.784-11.672-80.151,17.201-109.033l50.929-50.929c17.645-17.645,41.211-27.363,66.363-27.363
			c25.144,0,48.719,9.718,66.363,27.363l18.105,18.097C504.099,99.139,504.099,158.685,467.505,195.28z"/>
	</g>
</g>
<g>
	<g>
		<path d="M272.279,289.006l-5.759-8.711l-49.111,49.111l2.039,5.196c6.22,15.844,2.5,33.83-9.471,45.809l-50.929,50.929
			c-7.986,7.969-18.703,12.363-30.17,12.363c-11.476,0-22.192-4.386-30.17-12.363l-18.097-18.097
			c-7.978-7.978-12.372-18.694-12.372-30.17c0-11.476,4.394-22.184,12.372-30.17l50.92-50.929
			c11.723-11.715,30.144-15.546,45.818-9.428l5.188,2.005l49.12-49.12l-8.711-5.759c-43.821-28.95-102.557-23.054-139.664,14.044
			l-50.92,50.929C11.493,325.515,0,353.373,0,383.073s11.493,57.558,32.363,78.419l18.105,18.105
			c20.861,20.87,48.719,32.363,78.428,32.363c29.701,0,57.55-11.493,78.419-32.363l50.92-50.929
			C295.342,391.571,301.246,332.836,272.279,289.006z M246.188,416.605l-50.92,50.929c-17.645,17.645-41.219,27.363-66.363,27.363
			c-25.153,0-48.719-9.718-66.363-27.363l-18.105-18.105c-17.653-17.645-27.371-41.21-27.371-66.355s9.727-48.719,27.371-66.363
			l50.92-50.929c18.054-18.054,42.166-27.38,66.449-27.38c14.556,0,29.18,3.345,42.576,10.187l-26.245,26.236
			c-5.333-1.51-10.836-2.278-16.424-2.278c-16.032,0-31.032,6.169-42.234,17.363l-50.92,50.929
			c-11.203,11.194-17.372,26.202-17.372,42.234c0,16.032,6.169,31.04,17.372,42.234l18.097,18.097
			c11.211,11.194,26.194,17.363,42.234,17.363s31.04-6.169,42.243-17.363l50.929-50.929c15.418-15.426,21.066-37.943,15.119-58.702
			l26.211-26.202C281.605,343.356,275.061,387.723,246.188,416.605z"/>
	</g>
</g>
<g>
</g>
<g>
</g>
<g>
</g>
<g>
</g>
<g>
</g>
<g>
</g>
<g>
</g>
<g>
</g>
<g>
</g>
<g>
</g>
<g>
</g>
<g>
</g>
<g>
</g>
<g>
</g>
<g>
</g>
</svg>
