<svg width="240" height="62" xmlns="http://www.w3.org/2000/svg">
<style type="text/css">
    .st0{fill:#FFF}
</style>
    <path class="st0" d="M38.212 0a24.434 24.434 0 00-14.428 4.692 4.049 4.049 0 013.473 3.996v.2a4.002 4.002 0 01-1.058 2.737h1.153l16.284-.019a4.055 4.055 0 014.06 4.055v.197a4.021 4.021 0 01-1.059 2.739h.904a4.05 4.05 0 014.053 4.042v.197a4.053 4.053 0 01-3.933 4.042H46.64a4.021 4.021 0 011.077 2.752v.196a4.049 4.049 0 01-3.923 4.053H39.864a4.021 4.021 0 011.071 2.735v.211a4.053 4.053 0 01-3.923 4.053h-.119l-14.068.02h-2.93A24.491 24.491 0 0038.211 49.1h24.55V24.55C62.762 10.99 51.77 0 38.212 0z"/>
    <path class="st0" d="M49.477 22.633a1.94 1.94 0 00-1.943-1.937h-3.877l-17.947.021a1.456 1.456 0 01-.047-2.91h.043l17.99-.027a1.94 1.94 0 001.88-1.937v-.182a1.943 1.943 0 00-1.944-1.938l-21.427.034h-8.15a1.456 1.456 0 01-.049-2.91h8.345l.919-.013a1.943 1.943 0 001.88-1.945v-.197a1.943 1.943 0 00-1.944-1.939h-1.904l-6.673.026h-.026C5.695 7.073-.013 12.957 0 21.934v6.11c0 6.24 4.135 10.764 9.812 10.756l8.393-.013h4.61l14.065-.019h.058a1.943 1.943 0 001.881-1.943v-.211a1.945 1.945 0 00-1.905-1.933l-11.187.017a1.456 1.456 0 01-.049-2.91h.045l11.155-.019h.03l6.772-.01h.058a1.945 1.945 0 001.881-1.941v-.188a1.94 1.94 0 00-1.943-1.939l-17.947.028a1.456 1.456 0 01-.046-2.91h.042l17.947-.028H47.611a1.943 1.943 0 001.879-1.943l-.013-.205zM80.241 13.856h6.35c5.46 0 10.452 1.581 10.452 7.579 0 5.856-4.275 7.975-9.663 7.975h-2.117v9.523h-5.022V13.856zm5.029 11.602h1.759c2.516 0 4.778-.825 4.778-3.735s-2.19-3.916-4.778-3.916h-1.76v7.651zM99.822 21.399a16.56 16.56 0 016.421-1.401c5.638 0 7.975 2.328 7.975 7.795v2.37c0 1.869.036 3.27.07 4.635.038 1.4.108 2.694.211 4.131h-4.232c-.18-.971-.18-2.192-.212-2.766h-.072c-1.113 2.047-3.52 3.196-5.714 3.196-3.268 0-6.466-1.975-6.466-5.503 0-2.766 1.33-4.383 3.162-5.28 1.833-.898 4.22-1.063 6.22-1.063h2.656c0-2.98-1.329-3.985-4.167-3.985-2.046 0-4.095.79-5.714 2.01l-.138-4.14zm5.638 14.44a4.087 4.087 0 003.387-1.653c.789-1.041 1.005-2.37 1.005-3.81h-2.083c-2.156 0-5.352.36-5.352 3.199-.009 1.583 1.32 2.264 3.043 2.264zM118.307 20.43h4.273v4.203h.072c.211-1.725 2.192-4.635 5.064-4.635a5.24 5.24 0 011.482.144v4.848c-.423-.25-1.293-.393-2.155-.393-3.915 0-3.915 4.884-3.915 7.543v6.79h-4.821v-18.5zM146.419 37.884c-1.76.971-3.771 1.481-6.35 1.481-6.105 0-9.663-3.52-9.663-9.59 0-5.352 2.838-9.77 8.587-9.77 6.859 0 8.8 4.706 8.8 11.172h-12.796c.211 2.98 2.298 4.669 5.28 4.669 2.328 0 4.345-.862 6.138-1.87l.004 3.908zm-3.232-10.022c-.144-2.328-1.223-4.345-3.917-4.345s-4.057 1.867-4.273 4.345h8.19zM150.92 20.43h4.564v2.514h.072c1.509-2.116 3.557-2.946 6.072-2.946 4.38 0 6.285 3.09 6.285 7.257v11.674h-4.815v-9.88c0-2.262-.036-5.316-3.126-5.316-3.483 0-4.232 3.772-4.232 6.138v9.052h-4.82V20.43zM173.458 23.95h-3.555v-3.52h3.555v-3.7l4.813-1.545v5.245h4.275v3.52h-4.275v8.621c0 1.58.423 3.052 2.262 3.052.864 0 1.693-.18 2.193-.501l.144 3.81c-1.16.307-2.357.45-3.556.422-3.773 0-5.856-2.328-5.856-5.997v-9.408zM185.532 13.856h6.35c5.458 0 10.45 1.581 10.45 7.579 0 5.856-4.273 7.975-9.661 7.975h-2.117v9.523h-5.022V13.856zm5.029 11.602h1.759c2.514 0 4.778-.825 4.778-3.735s-2.192-3.916-4.778-3.916h-1.76v7.651zM205.111 21.399a16.58 16.58 0 016.432-1.401c5.638 0 7.972 2.328 7.972 7.795v2.37c0 1.869.036 3.27.072 4.635.036 1.4.108 2.694.212 4.131h-4.233c-.178-.971-.178-2.192-.212-2.766h-.071c-1.114 2.047-3.522 3.196-5.715 3.196-3.267 0-6.465-1.975-6.465-5.503 0-2.766 1.329-4.383 3.162-5.28 1.832-.898 4.198-1.063 6.222-1.063h2.658c0-2.98-1.33-3.985-4.167-3.985-2.049 0-4.095.79-5.715 2.01l-.152-4.14zm5.64 14.44a4.08 4.08 0 003.387-1.653c.791-1.041 1.007-2.37 1.007-3.81h-2.085c-2.154 0-5.35.36-5.35 3.199-.01 1.583 1.316 2.264 3.041 2.264zM230.559 33.934h.072l4.444-13.504h4.885l-6.934 18.355c-1.545 4.093-2.658 8.117-7.686 8.117a12.313 12.313 0 01-3.412-.502l.324-3.556c.61.212 1.293.322 2.478.322 1.939 0 3.124-1.329 3.124-3.304l-7.075-19.432h5.316l4.464 13.504zM87.655 60.764c-1.03.223-2.079.342-3.132.356-.766.028-1.53-.101-2.244-.381a2.79 2.79 0 01-1.32-1.186 5.477 5.477 0 01-.635-1.845c-.13-.86-.19-1.73-.178-2.599-.012-.875.048-1.749.178-2.614a5.583 5.583 0 01.635-1.873 2.766 2.766 0 011.312-1.185c.7-.272 1.45-.398 2.201-.37 1.068.019 2.131.143 3.175.37l-.051 1.1a17.803 17.803 0 00-3.048-.304c-1.241 0-2.063.37-2.463 1.109-.401.74-.601 2-.601 3.784-.01.719.026 1.438.11 2.152.06.508.202 1.002.423 1.463.192.412.525.743.94.931.41.188 1.015.28 1.811.28.947-.017 1.89-.118 2.82-.303l.067 1.115zM98.643 55.177c0 2.09-.333 3.602-.999 4.537-.666.936-1.876 1.404-3.631 1.406-1.757 0-2.967-.48-3.632-1.44-.665-.959-.998-2.469-.999-4.529 0-2.058.339-3.588 1.016-4.588s1.876-1.5 3.598-1.496c1.727 0 2.932.493 3.615 1.481.682.988 1.027 2.53 1.032 4.629zm-7.923-.034c0 1.717.225 2.95.677 3.701.451.751 1.323 1.126 2.616 1.124 1.29 0 2.16-.367 2.607-1.1.447-.734.67-1.964.669-3.691 0-1.727-.232-2.986-.694-3.776-.463-.79-1.33-1.185-2.6-1.185s-2.133.393-2.59 1.179c-.457.786-.685 2.035-.685 3.748zM102.504 57.429c0 1.693.917 2.54 2.751 2.54.948 0 1.662-.201 2.142-.602.48-.4.72-1.047.72-1.938v-8.193h1.286v8.159c0 1.31-.347 2.26-1.041 2.846-.694.587-1.719.88-3.073.879-1.355 0-2.373-.293-3.056-.879-.683-.585-1.025-1.534-1.025-2.846v-8.159h1.304l-.008 8.193zM112.442 60.952V49.236h2.438l4.485 10.563h.356V49.236h1.286v11.716h-2.385l-4.548-10.567h-.322v10.567zM122.923 50.402v-1.166h8.465v1.166h-3.572v10.55h-1.287v-10.55zM146.066 55.177c0 2.09-.333 3.602-1 4.537-.665.936-1.875 1.404-3.629 1.406-1.757 0-2.968-.48-3.634-1.44-.666-.959-.999-2.469-.999-4.529 0-2.058.339-3.588 1.016-4.588s1.877-1.5 3.598-1.496c1.727 0 2.932.493 3.615 1.481.683.988 1.027 2.53 1.033 4.629zm-7.924-.034c0 1.717.226 2.95.677 3.701.452.751 1.324 1.126 2.618 1.124 1.291 0 2.16-.367 2.605-1.1.446-.734.67-1.964.67-3.691 0-1.727-.232-2.986-.693-3.776-.461-.79-1.328-1.185-2.601-1.185-1.27 0-2.133.393-2.59 1.179-.458.786-.686 2.035-.686 3.748zM148.707 60.952V49.236h2.438l4.487 10.563h.347V49.236h1.287v11.716h-2.38l-4.554-10.565h-.321v10.565zM165.604 57.429c0 1.693.917 2.54 2.752 2.54.948 0 1.662-.201 2.141-.602.48-.4.72-1.047.72-1.938v-8.193h1.27v8.159c0 1.31-.347 2.26-1.041 2.846-.695.587-1.719.88-3.074.879-1.354 0-2.373-.293-3.056-.879-.682-.585-1.024-1.534-1.024-2.846v-8.159h1.304l.008 8.193zM178.777 50.199c-1.693 0-2.54.638-2.54 1.915 0 .71.195 1.198.584 1.463.39.264 1.179.53 2.37.795 1.192.265 2.034.61 2.54 1.033.506.424.745 1.122.745 2.091 0 2.407-1.247 3.607-3.742 3.598a20.893 20.893 0 01-3.098-.288l-.61-.065.136-1.082c1.161.171 2.331.272 3.505.303 1.669 0 2.504-.785 2.505-2.354 0-.63-.183-1.085-.55-1.362-.367-.278-1.052-.513-2.057-.703-1.32-.282-2.257-.646-2.81-1.09-.554-.445-.83-1.192-.83-2.243 0-2.101 1.258-3.152 3.776-3.152.992.014 1.982.099 2.962.254l.576.085-.118 1.1a32.18 32.18 0 00-3.344-.298z"/>
</svg>