<?xml version="1.0" encoding="utf-8"?>
<!-- Generator: Adobe Illustrator 21.1.0, SVG Export Plug-In . SVG Version: 6.00 Build 0)  -->
<svg version="1.1" id="Layer_1" xmlns="http://www.w3.org/2000/svg" xmlns:xlink="http://www.w3.org/1999/xlink" x="0px" y="0px"
	 viewBox="0 0 1139.1 136.2" style="enable-background:new 0 0 1139.1 136.2;" xml:space="preserve">
<style type="text/css">
	.st0{fill:#26B5AA;}
</style>
<path class="st0" d="M66.8,69.2c0,18.2-14.7,32.9-32.8,32.9c-6.8,0-13-2.1-18.2-5.6v39.6H0V35.4h15.8V42c5.2-3.6,11.4-5.6,18.2-5.6
	C52.1,36.4,66.8,51.2,66.8,69.2z M51,69.2c0-9.4-7.6-17-17-17s-17.1,7.6-17.1,17S24.6,86.4,34,86.4S51,78.7,51,69.2z"/>
<path class="st0" d="M142.1,35v66.1h-13.3v-6c-5.4,3.7-12,6-19,6c-18.3,0-33.2-15-33.2-33.2c0-18.3,14.9-33.2,33.2-33.2
	c7,0,13.5,2.3,19,6V35H142.1z M127.1,67.9c0-9.6-7.7-17.3-17.3-17.3c-9.4,0-17.1,7.7-17.1,17.3c0,9.4,7.7,17.1,17.1,17.1
	C119.4,85,127.1,77.3,127.1,67.9z"/>
<path class="st0" d="M211.7,43.7l-10.8,11.7c-3.1-2.9-6.9-4.4-11-4.4c-9,0-16.9,7.6-16.9,17V101h-15.8V34.6H173V40
	c4.9-3.1,10.8-4.9,16.9-4.9C198,35.1,205.7,38.3,211.7,43.7z"/>
<path class="st0" d="M231.7,74.3c2.3,7.7,8.9,12,16.7,12.2c7.3,0.3,13.4-2,17.4-6.2l10.8,9.6c-6.2,8-18.2,12.4-28.6,12.4
	c-18.3,0-33.2-14.9-33.2-33.2c0-18.3,14.9-33.2,33.2-33.2c21,0,35.5,19,31.9,38.5H231.7z M264.1,62.3c-2-6.2-8.8-11.4-16.1-11.4
	c-7.2,0-13.9,5.2-16.1,11.4H264.1z"/>
<path class="st0" d="M356.7,68.4v32.1h-16.2V68.4c0-9.7-7-17.5-15.4-17.5c-8.6,0-16.1,7.8-16.1,17.5v32.1h-16.1V35H309v5.3
	c3.7-3.5,10.2-5.4,16.1-5.4C342.5,34.8,356.7,49.8,356.7,68.4z"/>
<path class="st0" d="M413.5,51.2h-15.8v50.3h-17V51.2h-16.9V35.1h16.9V0.7h17v34.4h15.8V51.2z"/>
<path class="st0" d="M444.2,101.6c-8.8-0.5-19.8-6.5-24.2-11l9.7-12.4c2.4,2.7,13.8,9.3,21.6,7.8c2.1-0.4,4.5-2.3,4.5-5
	c0.1-1.9-1.5-3.6-2.8-4.2c-1.3-0.9-5.4-1.1-8.1-1.2c-3.1-0.1-6.5-0.5-10.2-2c-6.8-3.3-11.6-10.2-11.8-17.5c0-8.6,3.5-13.4,7-16.3
	c7.2-5.6,17.1-6.1,24-4.2c5.4,1.3,11.4,4.2,15,7.7l-8.9,12.5c-1.3-0.9-7.6-3.9-10-4.5c-3.7-1.1-8.4-0.5-10.5,0.8
	c-0.7,0.4-1.6,1.9-1.3,3.7c0,1.3,1.2,3.2,2.1,3.7c1.9,0.9,3.6,1.5,6.1,1.6c3.5,0,9.3,0,13.7,2.1c7.3,4,11.6,10.8,11,18.6
	c-0.4,6.8-5,13.4-11.2,16.6C455.5,101,449.4,102,444.2,101.6z"/>
<path class="st0" d="M550.7,69.2c0,18.2-14.7,32.9-32.8,32.9c-6.8,0-13-2.1-18.2-5.6v39.6h-15.8V35.4h15.8V42
	c5.2-3.6,11.4-5.6,18.2-5.6C536,36.4,550.7,51.2,550.7,69.2z M534.9,69.2c0-9.4-7.6-17-17-17c-9.4,0-17.1,7.6-17.1,17
	s7.7,17.1,17.1,17.1C527.3,86.4,534.9,78.7,534.9,69.2z"/>
<path class="st0" d="M591.7,101.6c-18.3,0-33.2-14.9-33.2-33.2c0-18.3,14.9-33.2,33.2-33.2s33.2,14.9,33.2,33.2
	C624.9,86.8,610.1,101.6,591.7,101.6z M591.7,51.2c-9.6,0-17.3,7.8-17.3,17.3c0,9.6,7.7,17.3,17.3,17.3c9.4,0,17.3-7.7,17.3-17.3
	C609,59,601.2,51.2,591.7,51.2z"/>
<path class="st0" d="M689.9,43.7l-10.8,11.7c-3.1-2.9-6.9-4.4-11-4.4c-9,0-16.9,7.6-16.9,17V101h-15.8V34.6h15.8V40
	c4.9-3.1,10.8-4.9,16.9-4.9C676.2,35.1,683.9,38.3,689.9,43.7z"/>
<path class="st0" d="M740.1,51.2h-15.8v50.3h-17V51.2h-16.9V35.1h16.9V0.7h17v34.4h15.8V51.2z"/>
<path class="st0" d="M814.8,35v66.1h-13.3v-6c-5.4,3.7-12,6-19,6c-18.3,0-33.2-15-33.2-33.2c0-18.3,14.9-33.2,33.2-33.2
	c7,0,13.5,2.3,19,6V35H814.8z M799.8,67.9c0-9.6-7.7-17.3-17.3-17.3c-9.4,0-17.1,7.7-17.1,17.3c0,9.4,7.7,17.1,17.1,17.1
	C792.1,85,799.8,77.3,799.8,67.9z"/>
<path class="st0" d="M845.6,0h-8.5c-2.1,0-3.9,1.7-3.9,3.9v88.9c0,2.1,8.1,15.3,8.1,15.3s8.1-13.1,8.1-15.3V3.9
	C849.5,1.7,847.8,0,845.6,0L845.6,0z M841.2,92.4c-1.6,0-3.1,0-3.3-0.1c-0.4-0.2-0.6-0.6-0.6-0.6V4h8.2v87.8
	c-0.1,0.1-0.4,0.4-0.6,0.5C844.7,92.4,842.9,92.4,841.2,92.4L841.2,92.4z"/>
<path class="st0" d="M864,90.6c0-6,4.9-10.6,10.9-10.8c6-0.1,10.9,4.8,10.9,10.8c0,6.1-4.9,11.2-10.9,11
	C868.9,101.5,864,96.7,864,90.6z"/>
<path class="st0" d="M920.3,101.6c-8.8-0.5-19.8-6.5-24.2-11l9.7-12.4c2.4,2.7,13.8,9.3,21.6,7.8c2.1-0.4,4.5-2.3,4.5-5
	c0.1-1.9-1.5-3.6-2.8-4.2c-1.3-0.9-5.4-1.1-8.1-1.2c-3.1-0.1-6.5-0.5-10.2-2c-6.8-3.3-11.6-10.2-11.8-17.5c0-8.6,3.5-13.4,7-16.3
	c7.2-5.6,17.1-6.1,24-4.2c5.4,1.3,11.4,4.2,15,7.7l-8.9,12.5c-1.3-0.9-7.6-3.9-10-4.5c-3.7-1.1-8.4-0.5-10.5,0.8
	c-0.7,0.4-1.6,1.9-1.3,3.7c0,1.3,1.2,3.2,2.1,3.7c1.9,0.9,3.6,1.5,6.1,1.6c3.5,0,9.3,0,13.7,2.1c7.3,4,11.6,10.8,11,18.6
	c-0.4,6.8-5,13.4-11.2,16.6C931.5,101,925.4,102,920.3,101.6z"/>
<path class="st0" d="M990.4,101c-8.6,0-16.7-3.3-23-9.3c-6.4-6.1-10-14.3-10.1-23.2c-0.1-8.9,3.2-17.3,9.3-23.6
	c6.1-6.2,14.3-10,23.2-10.1c8.9-0.1,17.1,3.2,23.5,9.3l-11,11.4c-3.2-3.1-7.4-4.8-12-4.8h-0.3c-4.6,0-8.9,1.9-12.1,5.2
	c-3.2,3.3-4.9,7.7-4.8,12.4c0,4.6,1.9,8.9,5.2,12.1c3.3,3.2,7.7,4.9,12.4,4.8c4.2,0,8.2-1.7,11.4-4.6l10.8,11.7
	c-6,5.6-13.8,8.8-21.9,8.9H990.4z"/>
<path class="st0" d="M1051.1,101.6c-18.3,0-33.2-14.9-33.2-33.2c0-18.3,14.9-33.2,33.2-33.2c18.3,0,33.2,14.9,33.2,33.2
	C1084.3,86.8,1069.4,101.6,1051.1,101.6z M1051.1,51.2c-9.6,0-17.3,7.8-17.3,17.3c0,9.6,7.7,17.3,17.3,17.3
	c9.4,0,17.3-7.7,17.3-17.3C1068.3,59,1060.5,51.2,1051.1,51.2z"/>
<path class="st0" d="M1139.1,51.2h-15.8v50.3h-17V51.2h-16.9V35.1h16.9V0.7h17v34.4h15.8V51.2z"/>
</svg>
