<svg height="512" viewBox="0 0 64 64" width="512" xmlns="http://www.w3.org/2000/svg"><g id="Taxi-Car-Cab-Vehicle-Transport"><path d="m12 35a4 4 0 1 0 4 4 4 4 0 0 0 -4-4zm0 6a2 2 0 1 1 2-2 2 2 0 0 1 -2 2z"/><path d="m52 35a4 4 0 1 0 4 4 4 4 0 0 0 -4-4zm0 6a2 2 0 1 1 2-2 2 2 0 0 1 -2 2z"/><path d="m23 40h18v2h-18z"/><path d="m23 36h18v2h-18z"/><path d="m29 21h6v2h-6z"/><path d="m62 30v-2a3.009 3.009 0 0 0 -3-3h-3.96l-2.07-7.26-.62-2.47a3 3 0 0 0 -2.91-2.27h-8.44v-4a2.006 2.006 0 0 0 -2-2h-14a2.006 2.006 0 0 0 -2 2v4h-8.44a3 3 0 0 0 -2.91 2.27l-.61 2.46-2.08 7.27h-3.96a3.009 3.009 0 0 0 -3 3v2a2.992 2.992 0 0 0 1.41 2.53 4.976 4.976 0 0 0 -1.41 3.47v12a2.986 2.986 0 0 0 1 2.22v3.78a3.009 3.009 0 0 0 3 3h8a3.009 3.009 0 0 0 3-3v-3h30v3a3.009 3.009 0 0 0 3 3h8a3.009 3.009 0 0 0 3-3v-3.78a2.986 2.986 0 0 0 1-2.22v-12a4.976 4.976 0 0 0 -1.41-3.47 2.992 2.992 0 0 0 1.41-2.53zm-37-21h14v4h-14zm-11.41 6.76a1 1 0 0 1 .97-.76h34.88a1 1 0 0 1 .97.76l.31 1.24h-37.44zm-.84 3.24h38.5l3.42 12h-28.76a5.993 5.993 0 0 0 -11.82 0h-4.76zm11.11 12h-7.72a3.983 3.983 0 0 1 7.72 0zm-19.86-3a1 1 0 0 1 1-1h3.39l-1.14 4h-2.25a1 1 0 0 1 -1-1zm11 26a1 1 0 0 1 -1 1h-8a1 1 0 0 1 -1-1v-3h10zm44 0a1 1 0 0 1 -1 1h-8a1 1 0 0 1 -1-1v-3h10zm1-6a1 1 0 0 1 -1 1h-54a1 1 0 0 1 -1-1v-1h56zm0-3h-56v-9a3.009 3.009 0 0 1 3-3h50a3.009 3.009 0 0 1 3 3zm0-15a1 1 0 0 1 -1 1h-2.25l-1.14-4h3.39a1 1 0 0 1 1 1z"/></g></svg>