<?xml version="1.0" encoding="iso-8859-1"?>
<!-- Generator: Adobe Illustrator 19.0.0, SVG Export Plug-In . SVG Version: 6.00 Build 0)  -->
<svg version="1.1" id="Capa_1" xmlns="http://www.w3.org/2000/svg" xmlns:xlink="http://www.w3.org/1999/xlink" x="0px" y="0px"
	 viewBox="0 0 512 512" style="enable-background:new 0 0 512 512;" xml:space="preserve">
<g>
	<g>
		<path d="M426.667,119.467H85.333c-4.71,0-8.533,3.823-8.533,8.533v348.092C76.8,495.889,92.902,512,112.708,512h286.575
			c19.806,0,35.917-16.111,35.917-35.908V128C435.2,123.29,431.377,119.467,426.667,119.467z M418.125,476.092
			c0,10.385-8.448,18.842-18.842,18.842H112.708c-10.385,0-18.842-8.457-18.842-18.842V136.533h324.258V476.092z"/>
	</g>
</g>
<g>
	<g>
		<path d="M404.267,51.2H107.733c-26.47,0-48,21.53-48,48V128c0,4.71,3.823,8.533,8.533,8.533h375.467
			c4.71,0,8.533-3.823,8.533-8.533V99.2C452.267,72.73,430.737,51.2,404.267,51.2z M435.2,119.467H76.8V99.2
			c0-17.058,13.875-30.933,30.933-30.933h296.533c17.058,0,30.933,13.875,30.933,30.933V119.467z"/>
	</g>
</g>
<g>
	<g>
		<path d="M316.083,0H195.908c-18.62,0-33.775,15.155-33.775,33.775v25.958c0,4.71,3.823,8.533,8.533,8.533h170.667
			c4.71,0,8.533-3.823,8.525-8.533V33.775C349.858,15.155,334.711,0,316.083,0z M332.8,51.2H179.2V33.775
			c0-9.216,7.492-16.708,16.708-16.708h120.175c9.225,0,16.717,7.492,16.717,16.708V51.2z"/>
	</g>
</g>
<g>
	<g>
		<path d="M153.6,170.667c-18.825,0-34.133,15.309-34.133,34.133v221.867c0,18.825,15.309,34.133,34.133,34.133
			s34.133-15.309,34.133-34.133V204.8C187.733,185.975,172.425,170.667,153.6,170.667z M170.667,426.667
			c0,9.412-7.654,17.067-17.067,17.067s-17.067-7.654-17.067-17.067V204.8c0-9.412,7.654-17.067,17.067-17.067
			s17.067,7.654,17.067,17.067V426.667z"/>
	</g>
</g>
<g>
	<g>
		<path d="M358.4,170.667c-18.825,0-34.133,15.309-34.133,34.133v221.867c0,18.825,15.309,34.133,34.133,34.133
			c18.824,0,34.133-15.309,34.133-34.133V204.8C392.533,185.975,377.225,170.667,358.4,170.667z M375.467,426.667
			c0,9.412-7.654,17.067-17.067,17.067c-9.412,0-17.067-7.654-17.067-17.067V204.8c0-9.412,7.654-17.067,17.067-17.067
			c9.412,0,17.067,7.654,17.067,17.067V426.667z"/>
	</g>
</g>
<g>
	<g>
		<path d="M256,170.667c-18.825,0-34.133,15.309-34.133,34.133v221.867c0,18.825,15.309,34.133,34.133,34.133
			s34.133-15.309,34.133-34.133V204.8C290.133,185.975,274.825,170.667,256,170.667z M273.067,426.667
			c0,9.412-7.654,17.067-17.067,17.067c-9.412,0-17.067-7.654-17.067-17.067V204.8c0-9.412,7.654-17.067,17.067-17.067
			c9.412,0,17.067,7.654,17.067,17.067V426.667z"/>
	</g>
</g>
<g>
</g>
<g>
</g>
<g>
</g>
<g>
</g>
<g>
</g>
<g>
</g>
<g>
</g>
<g>
</g>
<g>
</g>
<g>
</g>
<g>
</g>
<g>
</g>
<g>
</g>
<g>
</g>
<g>
</g>
</svg>
